<svg xmlns="http://www.w3.org/2000/svg" width="18.142" height="18.578" viewBox="0 0 18.142 18.578">
  <g id="brazil" transform="translate(0.001 0)">
    <path id="Caminho_41" data-name="Caminho 41" d="M16.917,4.687,16.8,4.6a6.375,6.375,0,0,0-1.242-.793,2.949,2.949,0,0,0-1.036-.17,3.229,3.229,0,0,1-.737-.089,5.148,5.148,0,0,1-1-.5,2.27,2.27,0,0,0-.939-.4c-.284-.028-.437-.568-.519-.858l-.019-.068c-.017-.058-.038-.177-.059-.292a2.229,2.229,0,0,0-.287-.92.8.8,0,0,0-.908-.269.929.929,0,0,0-.542.984.391.391,0,0,1-.2.187.277.277,0,0,1-.25.01,1.147,1.147,0,0,0-1.215.093,1.3,1.3,0,0,1-.75.218c.014-.069.035-.15.051-.212a2.129,2.129,0,0,0,.1-.808.829.829,0,0,0-.6-.69A1,1,0,0,0,5.578.489c-.084.108-.5.089-.7.081C4.544.555,4.23.541,4.085.82a.5.5,0,0,0,.095.564,2.338,2.338,0,0,1,.144.306A2.155,2.155,0,0,0,4.07,1.8a.65.65,0,0,1-.245.093.518.518,0,0,1-.279-.189,1.327,1.327,0,0,0-1.372-.231.782.782,0,0,0-.539.724.956.956,0,0,0,.158.484c.123.22.25.448-.023,1.111a.9.9,0,0,0,.022.617c-.038,0-.085,0-.144,0A1.671,1.671,0,0,0,.187,5.423,1.215,1.215,0,0,0,.152,6.664l0,.017a2.054,2.054,0,0,0,.389.831,1.793,1.793,0,0,0,.76.507h0l.108.041a3.091,3.091,0,0,0,.562.144,1.039,1.039,0,0,1,.1.07.833.833,0,0,0,1.187-.023,4.384,4.384,0,0,1,.411-.317c0,.032,0,.071,0,.118,0,.721,1.041,1.053,1.729,1.273.082.026.153.049.207.068l.172.059.1.035a2.687,2.687,0,0,0,.274.3c0,.029.006.06.009.095.011.124.024.279.048.471a.693.693,0,0,0,.651.585.75.75,0,0,1,.167.045.17.17,0,0,1,.015.059,4.084,4.084,0,0,1-.041.611,7.049,7.049,0,0,0-.055.734c0,.15,0,.607.378.715a.633.633,0,0,1,.446.388,1.006,1.006,0,0,0,.75.6c.061.011.091.1.123.378a1.613,1.613,0,0,0,.059.317.5.5,0,0,0,.246.3.328.328,0,0,1-.218.214c-.187.042-.409.22-.869.632-.058.052-.108.1-.14.124a.641.641,0,0,0-.269.561c.036.341.352.51.717.706a2.391,2.391,0,0,1,.851.63c.01.015.032.066.047.1a.751.751,0,0,0,.52.515.552.552,0,0,0,.094.008.919.919,0,0,0,.626-.346c.182-.193.586-.653.951-1.13.659-.861.748-1.187.748-1.392a1.63,1.63,0,0,1,.705-1.394,3.2,3.2,0,0,1,1.094-.446c.2-.05.43-.106.738-.211a1.832,1.832,0,0,0,.744-.581.363.363,0,0,0-.553-.47,1.24,1.24,0,0,1-.425.364c-.278.095-.49.147-.677.193a3.922,3.922,0,0,0-1.3.53A2.334,2.334,0,0,0,11.292,15.7a8.822,8.822,0,0,1-1.5,2.03l-.043.043-.008-.018a1.287,1.287,0,0,0-.115-.219,2.982,2.982,0,0,0-1.1-.855c-.078-.042-.173-.093-.248-.138l.082-.073A5.912,5.912,0,0,1,8.925,16a1.058,1.058,0,0,0,.773-1.06.564.564,0,0,0-.313-.481c0-.027-.007-.056-.01-.081-.034-.29-.106-.895-.712-1.007-.125-.023-.15-.061-.247-.237a1.336,1.336,0,0,0-.734-.686c0-.01,0-.021,0-.032l.1.066a.363.363,0,0,0,.392,0l6.767-4.345a.363.363,0,0,0,0-.611L8.177,3.187a.363.363,0,0,0-.392,0L1.416,7.276a.906.906,0,0,1-.3-.218,1.347,1.347,0,0,1-.25-.551.559.559,0,0,0-.109-.252C.708,6.2.7,6.008.835,5.75c.183-.363.518-.633.763-.617A.953.953,0,0,0,2.435,4.9a.713.713,0,0,0,.052-.691,1.1,1.1,0,0,1-.039-.153,1.728,1.728,0,0,0-.022-1.723A.9.9,0,0,1,2.361,2.2.4.4,0,0,1,2.6,2.112a.553.553,0,0,1,.419.094,1.007,1.007,0,0,0,1.38.244.6.6,0,0,1,.277-.1.4.4,0,0,0,.391-.209c.09-.166.071-.368-.07-.721-.013-.033-.031-.076-.052-.124a1.381,1.381,0,0,0,1.2-.364C6.279.769,6.4.712,6.459.728A.109.109,0,0,1,6.53.82a1.666,1.666,0,0,1-.082.526c-.084.332-.211.832.211,1.043a.363.363,0,0,0,.089.031A1.938,1.938,0,0,0,8.2,2.158c.291-.157.362-.18.528-.092A1.015,1.015,0,0,0,9.755,2a.952.952,0,0,0,.482-.8c-.009-.177.039-.262.072-.274a.079.079,0,0,1,.079.035,3.115,3.115,0,0,1,.147.6c.026.145.049.271.076.364l.018.065c.12.424.369,1.306,1.146,1.382a1.8,1.8,0,0,1,.635.3,5.835,5.835,0,0,0,1.139.563,3.608,3.608,0,0,0,.938.129,2.746,2.746,0,0,1,.767.1,5.728,5.728,0,0,1,1.1.708c.2.156.291.227.436.234.457.022.522.157.55.214a2.2,2.2,0,0,1,.067.83c0,.105,0,.214,0,.328a5.411,5.411,0,0,1-.949,1.211c-.939.7-.961,1.089-.886,1.607a1.716,1.716,0,0,1,.025.368.363.363,0,1,0,.724.043,2.4,2.4,0,0,0-.032-.515.549.549,0,0,1,.008-.337,1.969,1.969,0,0,1,.593-.583,5.286,5.286,0,0,0,.7-.765c.54-.689.54-.9.54-1s0-.229,0-.339c.016-.788.034-1.679-1.22-1.779ZM6.04,7.837a1.933,1.933,0,0,1,.052-.445A4.9,4.9,0,0,1,9.817,8.469,1.941,1.941,0,0,1,6.04,7.837Zm.414-1.2a1.94,1.94,0,0,1,3.456.973A5.75,5.75,0,0,0,6.453,6.641ZM7.981,3.923l6.1,3.914-6.1,3.914-.234-.15a3.186,3.186,0,0,0,.026-.647.784.784,0,0,0-.221-.484,2.665,2.665,0,0,0,3.02-2,.356.356,0,0,0,.011-.048,2.667,2.667,0,0,0-5.108-1.5.363.363,0,0,0-.015.044,2.655,2.655,0,0,0-.044,1.6A5.465,5.465,0,0,1,4.8,8.329c-.331-.157-.391-.266-.4-.281,0-.17,0-.665-.381-.841-.413-.193-.845.169-1.228.49a.391.391,0,0,1-.146.091A.642.642,0,0,1,2.52,7.7a1.4,1.4,0,0,0-.206-.14ZM2.361,2.2h0Zm0,0" transform="translate(0 0)" fill="#fff"/>
    <path id="Caminho_42" data-name="Caminho 42" d="M421.332,306.329a.363.363,0,0,0-.444.257h0a.363.363,0,1,0,.444-.257Zm0,0" transform="translate(-405.605 -295.202)" fill="#fff"/>
  </g>
</svg>
