<svg id="Grupo_368" data-name="Grupo 368" xmlns="http://www.w3.org/2000/svg" width="141.134" height="59.229" viewBox="0 0 141.134 59.229">
  <g id="Grupo_3" data-name="Grupo 3" transform="translate(0 0)">
    <g id="Grupo_2" data-name="Grupo 2" transform="translate(0 0)">
      <g id="Grupo_1" data-name="Grupo 1">
        <path id="Caminho_1" data-name="Caminho 1" d="M267.544,394.516l-11.053-.076v-.052H246.357V425h10.134s.018-16.263.018-17.867.971-1.309.971-1.309l6.9.046s17.244-1.436,17.244,18.144-15.205,18.271-15.205,18.271h-20.06v11.335l19.6-.05s28.168.969,28.168-29.544S267.544,394.516,267.544,394.516Z" transform="translate(-246.357 -394.388)"/>
        <path id="Caminho_2" data-name="Caminho 2" d="M294.052,394.388H281.47v59.2h31.684V441.005h-19.1Z" transform="translate(-227.967 -394.388)"/>
        <rect id="Retângulo_1" data-name="Retângulo 1" width="12.582" height="59.199" transform="translate(91.227 0)"/>
        <path id="Caminho_3" data-name="Caminho 3" d="M350.467,394.388H337.885l-20.836,29.6,20.836,29.6h12.582l-18.979-29.6Z" transform="translate(-209.333 -394.388)"/>
      </g>
    </g>
  </g>
</svg>
