<svg xmlns="http://www.w3.org/2000/svg" width="17.794" height="14.89" viewBox="0 0 17.794 14.89">
  <g id="europe" transform="translate(-0.002 -41.778)">
    <g id="Grupo_49" data-name="Grupo 49" transform="translate(0.002 41.778)">
      <g id="Grupo_48" data-name="Grupo 48" transform="translate(0 0)">
        <path id="Caminho_58" data-name="Caminho 58" d="M17.662,51.639a.955.955,0,0,0-.66-.3c-.051-.008-.1-.016-.135-.025a.829.829,0,0,1-.531-.369.7.7,0,0,1-.03-.557,2.033,2.033,0,0,1,.1-.234,1.076,1.076,0,0,0,.114-.9,2.761,2.761,0,0,0-.588-.762l-.007-.007.02-.017c.195-.163.4-.331.6-.483.02-.015.055-.036.089-.057a1.321,1.321,0,0,0,.231-.168.827.827,0,0,0,.235-.808.654.654,0,0,0-.541-.446c-.076-.013-.164-.021-.266-.029a2.835,2.835,0,0,1-.476-.068A.62.62,0,0,0,15.7,45.8a.506.506,0,0,0-.316-.168,1.108,1.108,0,0,0-.026-.163,2.659,2.659,0,0,0-.563-1.006c-.043-.055-.086-.11-.127-.165-.064-.085-.14-.171-.22-.262a1.9,1.9,0,0,1-.346-.47,1.118,1.118,0,0,1,0-.417,1.735,1.735,0,0,0-.014-.687.923.923,0,0,0-.89-.686h-.005a1.054,1.054,0,0,0-.937.738c-.194.387-.385.783-.569,1.165q-.14.29-.28.579c-.04.083-.082.188-.131.31a5.037,5.037,0,0,1-.3.655c-.142.241-.225.262-.224.262a.2.2,0,0,1-.083-.014,1.22,1.22,0,0,1-.038-.462,1.4,1.4,0,0,0-.1-.719c-.221-.4-.79-.525-1.2-.618-.07-.016-.137-.031-.187-.044a.776.776,0,0,0-.41-.039.568.568,0,0,0-.328.27l-.057.08-.783,1.072c-.1.137-.195.285-.295.441a2.8,2.8,0,0,1-.85.987l-.1.052a.95.95,0,0,0-.652.931l-.007.047a1.264,1.264,0,0,0,.173,1.086.739.739,0,0,0,.659.188.722.722,0,0,0,.239-.08.531.531,0,0,0,.11.162.779.779,0,0,0,.582.229.956.956,0,0,0,.679-.333,1.439,1.439,0,0,0,.348-1.06,1.068,1.068,0,0,0-.135-.379l-.011-.02.006-.019a1.36,1.36,0,0,1,.5-.663,1.214,1.214,0,0,1,.223.435,2.354,2.354,0,0,0,.186.416l.018.034a.746.746,0,0,0,.174.236,1.148,1.148,0,0,0-.2.11,1.83,1.83,0,0,0-.651.817,1.715,1.715,0,0,0-.077.316.82.82,0,0,1-.062.236.707.707,0,0,1-.3.306,1.068,1.068,0,0,1-.184.076.348.348,0,1,0,.21.664,1.763,1.763,0,0,0,.3-.127,1.342,1.342,0,0,0,.723-1.037,1.135,1.135,0,0,1,.044-.192,1.154,1.154,0,0,1,.4-.492.969.969,0,0,1,.154-.075.748.748,0,0,0,.561-.654,1.277,1.277,0,0,0-.324-.686.357.357,0,0,0-.278-.065c-.016-.041-.032-.083-.048-.126a1.292,1.292,0,0,0-.62-.84.69.69,0,0,0-.552.018,2.058,2.058,0,0,0-.863,1.058.665.665,0,0,0,.051.611.393.393,0,0,1,.057.151.767.767,0,0,1-.184.491.271.271,0,0,1-.179.1.091.091,0,0,1-.041-.007.569.569,0,0,0-.3-.384.627.627,0,0,0-.606.057c-.019.011-.044.025-.057.03a.313.313,0,0,1-.065,0,1.618,1.618,0,0,1,.023-.485l.007-.049a1.49,1.49,0,0,1,.058-.283,1.443,1.443,0,0,1,.224-.128l.1-.054a3.307,3.307,0,0,0,1.113-1.229c.094-.147.183-.286.27-.406l.783-1.072.038-.053.016,0c.063.017.136.033.213.05.168.037.678.151.746.274a1.437,1.437,0,0,1,.016.363,1.29,1.29,0,0,0,.23.961.781.781,0,0,0,.572.23h.016c.628,0,.954-.815,1.17-1.356.042-.1.081-.2.11-.263q.141-.29.281-.582c.183-.38.373-.773.565-1.156.147-.293.2-.353.318-.353h0a.23.23,0,0,1,.22.179,1.213,1.213,0,0,1-.007.416,1.625,1.625,0,0,0,.027.719,2.256,2.256,0,0,0,.484.711c.071.08.138.156.185.219s.09.117.135.176a2.068,2.068,0,0,1,.435.74.558.558,0,0,1,.011.084.644.644,0,0,0,.224.474.491.491,0,0,0,.207.109.6.6,0,0,0,.1.53,1.415,1.415,0,0,0,1,.34c.074.006.144.012.191.019a.207.207,0,0,1-.047.072,1.182,1.182,0,0,1-.112.074c-.047.029-.095.059-.139.092-.217.162-.426.337-.628.506-.1.082-.2.167-.3.248a.348.348,0,0,0-.048.493c.083.1.18.2.282.3a2.337,2.337,0,0,1,.447.551c.022.05-.059.228-.108.335a2.567,2.567,0,0,0-.129.322,1.39,1.39,0,0,0,.086,1.095,1.525,1.525,0,0,0,.955.7c.034.009.069.017.1.023-.111.011-.23.016-.347.021s-.252.011-.371.023-.245.033-.365.052a3.142,3.142,0,0,1-.644.061,2.119,2.119,0,0,1-.573-.182,1.756,1.756,0,0,0-1.179-.2,2.248,2.248,0,0,0-.418.187c-.2.11-.228.124-.445-.008a.771.771,0,0,0-.652-.126c-.279.1-.377.364-.472.622l-.033.089c-.022.058-.051.124-.082.194a1.457,1.457,0,0,0-.146,1.186,1.543,1.543,0,0,0,.1.182,1.346,1.346,0,0,1-.466.142,2.861,2.861,0,0,0-.4.1.692.692,0,0,0-.474.422.737.737,0,0,0,.237.664,1.083,1.083,0,0,1,.131.18.462.462,0,0,1-.088.342,1.806,1.806,0,0,1-.355-.481c-.061-.1-.119-.2-.18-.286-.032-.045-.07-.09-.106-.134a1.189,1.189,0,0,1-.119-.157.8.8,0,0,1,0-.12,1.142,1.142,0,0,0-.01-.3,3.277,3.277,0,0,0-1.81-1.678.573.573,0,0,0-.617.284c-.1.179-.069.405.128.968l-.022-.021a1.016,1.016,0,0,1-.195-.323,1.133,1.133,0,0,0-.339-.484.771.771,0,0,0-.8-.017l-.1.046c-.2.094-.24.112-.4.069-.462-.127-.791-.171-1.129.361a.259.259,0,0,1-.188.152,2.558,2.558,0,0,0-.263.113,2.085,2.085,0,0,0-.586.485l-.034.036c-.065.07-.129.148-.2.23-.167.2-.4.483-.569.483h0a2.012,2.012,0,0,1-.265-.03,2.085,2.085,0,0,0-.479-.034.667.667,0,0,1-.114,0c-.013-.015-.031-.039-.047-.06a2.386,2.386,0,0,0-.163-.2,1.923,1.923,0,0,0-.3-.254A1.109,1.109,0,0,1,.7,54.5a.3.3,0,0,1,.019-.069,6.889,6.889,0,0,1,.457-.9c.064-.114.131-.231.193-.346.1-.181.167-.23.2-.242A.43.43,0,0,1,1.846,53c.248.11.5.232.743.349l.377.181a.348.348,0,0,0,.465-.169c.037-.08.085-.168.135-.261a2.786,2.786,0,0,0,.3-.7,1.041,1.041,0,0,0,.014-.3.455.455,0,0,1,0-.126.85.85,0,0,1,.328-.352l.05-.039a9.271,9.271,0,0,1,1.081-.743A.348.348,0,0,0,5,50.233a9.944,9.944,0,0,0-1.164.8l-.048.037a1.42,1.42,0,0,0-.569.7,1.015,1.015,0,0,0-.03.367.544.544,0,0,1,0,.108,2.2,2.2,0,0,1-.225.5l-.069-.034c-.248-.12-.5-.244-.763-.358a.951.951,0,0,0-1.373.492c-.059.109-.121.218-.186.333a7.389,7.389,0,0,0-.5,1,.772.772,0,0,0,.363.993,1.31,1.31,0,0,1,.2.162,1.731,1.731,0,0,1,.118.145.739.739,0,0,0,.762.336,1.45,1.45,0,0,1,.326.027,2.631,2.631,0,0,0,.356.038c.515.012.87-.421,1.129-.737.06-.073.116-.142.166-.2l.035-.037a1.482,1.482,0,0,1,.389-.337,1.874,1.874,0,0,1,.2-.084.91.91,0,0,0,.529-.43.691.691,0,0,1,.091-.122A1.761,1.761,0,0,1,4.992,54a1.1,1.1,0,0,0,.875-.108l.093-.043a.49.49,0,0,1,.122-.041,1.408,1.408,0,0,1,.1.2,1.593,1.593,0,0,0,.359.548c.017.015.066.064.119.116.132.131.332.328.515.492.282.253.485.413.722.337a.355.355,0,0,0,.211-.184c.08-.167.044-.261-.191-.875-.083-.217-.228-.6-.31-.86a2.835,2.835,0,0,1,.487.382,2.807,2.807,0,0,1,.555.665.941.941,0,0,1,0,.114.969.969,0,0,0,.033.387,1.24,1.24,0,0,0,.245.381c.029.035.056.067.073.091.045.064.1.149.15.239a2.122,2.122,0,0,0,.573.708.7.7,0,0,0,.388.122.658.658,0,0,0,.429-.163,1.094,1.094,0,0,0,.287-1.171A1.534,1.534,0,0,0,10.595,55l-.006-.007c.069-.018.149-.034.234-.05a1.687,1.687,0,0,0,.8-.3.594.594,0,0,0,.136-.877,1.009,1.009,0,0,1-.065-.114c-.061-.135.056-.4.15-.618.033-.075.067-.153.1-.228l.035-.095c.019-.053.043-.117.064-.167l.043.025a.971.971,0,0,0,1.14.024,1.59,1.59,0,0,1,.294-.134,1.365,1.365,0,0,1,.7.175,2.565,2.565,0,0,0,.8.234,3.643,3.643,0,0,0,.8-.068c.116-.019.226-.036.328-.047s.209-.015.326-.02a3.048,3.048,0,0,0,.83-.112.709.709,0,0,0,.475-.444A.58.58,0,0,0,17.662,51.639Z" transform="translate(-0.002 -41.778)" fill="#fff"/>
      </g>
    </g>
    <g id="Grupo_51" data-name="Grupo 51" transform="translate(6.249 49.688)">
      <g id="Grupo_50" data-name="Grupo 50">
        <path id="Caminho_59" data-name="Caminho 59" d="M180.468,269.707a.349.349,0,0,0-.375-.321h-.005a.348.348,0,0,0,.029.7h.032A.347.347,0,0,0,180.468,269.707Z" transform="translate(-179.767 -269.385)" fill="#fff"/>
      </g>
    </g>
    <g id="Grupo_53" data-name="Grupo 53" transform="translate(2.276 46.524)">
      <g id="Grupo_52" data-name="Grupo 52" transform="translate(0 0)">
        <path id="Caminho_60" data-name="Caminho 60" d="M68.221,181.034a4.117,4.117,0,0,0-.146-.53,2.348,2.348,0,0,1-.145-.619,1.282,1.282,0,0,1,.053-.247.971.971,0,0,0-.131-1.028,1.326,1.326,0,0,0-1.163-.219.746.746,0,0,0-.564.5,1.5,1.5,0,0,0,.009.715.979.979,0,0,1,.022.434,5.312,5.312,0,0,1-.276.671c-.054.117-.11.239-.162.36-.007.015-.023.05-.04.083-.191.393-.361.8-.167,1.112a.545.545,0,0,0,.489.249c.081,0,.169,0,.262,0s.206,0,.313,0a1.827,1.827,0,0,0,1.434-.443A1.206,1.206,0,0,0,68.221,181.034Zm-.741.588c-.185.216-.773.2-1.2.195l-.127,0a3.173,3.173,0,0,1,.155-.36c.023-.047.041-.085.055-.117.047-.11.1-.221.152-.338a5.912,5.912,0,0,0,.311-.762,1.568,1.568,0,0,0,0-.762,1.034,1.034,0,0,1-.029-.379.711.711,0,0,1,.58.018,1.034,1.034,0,0,1-.059.341,1.594,1.594,0,0,0-.078.445,2.87,2.87,0,0,0,.179.819,3.571,3.571,0,0,1,.123.439A.568.568,0,0,1,67.48,181.622Z" transform="translate(-65.426 -178.346)" fill="#fff"/>
      </g>
    </g>
  </g>
</svg>
