<svg xmlns="http://www.w3.org/2000/svg" width="166.729" height="23.781" viewBox="0 0 166.729 23.781">
  <g id="Agrupar_2" data-name="Agrupar 2" transform="translate(-832 -523)">
    <path id="Caminho_1" data-name="Caminho 1" d="M994.877,1a11.873,11.873,0,1,0,11.877,11.869A11.875,11.875,0,0,0,994.877,1Zm0,17.847a5.978,5.978,0,1,1,5.978-5.978A5.98,5.98,0,0,1,994.877,18.847Z" transform="translate(-69.788 522.026)" fill="#fff"/>
    <path id="Caminho_2" data-name="Caminho 2" d="M1368.177,1a11.877,11.877,0,1,0,11.877,11.877A11.877,11.877,0,0,0,1368.177,1Zm0,17.847a5.978,5.978,0,1,1,5.978-5.978A5.98,5.98,0,0,1,1368.177,18.847Z" transform="translate(-413.912 522.026)" fill="#fff"/>
    <path id="Caminho_3" data-name="Caminho 3" d="M5.1.7H-.8V24.437H12.955V18.547H5.1Z" transform="translate(832.8 522.3)" fill="#fff"/>
    <path id="Caminho_4" data-name="Caminho 4" d="M547.69.7H541.8V24.437h5.891V9.531l3.922,6.034,2.95-4.411Z" transform="translate(334.894 522.3)" fill="#fff"/>
    <path id="Caminho_5" data-name="Caminho 5" d="M695.585,24.437V.7h-5.891l-8.954,13.4-2.071,2.887-.026.035h5.943l-.026-.035,5.135-7.455V24.437Z" transform="translate(209.39 522.3)" fill="#fff"/>
    <path id="Caminho_6" data-name="Caminho 6" d="M283.926,18.547H276v-3h3.02v-5.9H276V6.617h7.926V.726H276V.7h-5.9V24.437h13.826Z" transform="translate(584.212 522.3)" fill="#fff"/>
    <path id="Caminho_7" data-name="Caminho 7" d="M1747,.7V16.586L1735.09.7h-5.89V24.437h5.89V8.56L1747,24.437h5.9V.7Z" transform="translate(-754.173 522.3)" fill="#fff"/>
  </g>
</svg>
