<svg xmlns="http://www.w3.org/2000/svg" width="201.845" height="50.233" viewBox="0 0 201.845 50.233">
  <g id="Grupo_432" data-name="Grupo 432" transform="translate(-195.878 -15)">
    <g id="Grupo_35" data-name="Grupo 35" transform="translate(195.878 15)">
      <path id="Caminho_4" data-name="Caminho 4" d="M217.068,414.218H210.88A3.192,3.192,0,0,1,207.737,411V396.1a23.3,23.3,0,0,0,1.623,3.717Z" transform="translate(-207.737 -363.985)" fill-rule="evenodd"/>
      <path id="Caminho_5" data-name="Caminho 5" d="M275.033,359.6v2.175A3.192,3.192,0,0,1,271.891,365H244.517l-1.246-2.328-9.358-17.487a5.021,5.021,0,0,1-.522-4.387,5.967,5.967,0,0,1,6.445-3.625,4.731,4.731,0,0,1,3.372,2.784l.77,1.439,8.588,16.048,6.933-3.9L250.91,337.5l-.77-1.439a4.938,4.938,0,0,1-.47-4.416,6.133,6.133,0,0,1,2.664-2.971,5.893,5.893,0,0,1,3.875-.707,4.727,4.727,0,0,1,3.38,2.779l13.166,24.6Z" transform="translate(-226.033 -314.766)" fill-rule="evenodd"/>
      <path id="Caminho_6" data-name="Caminho 6" d="M210.88,280.749H253.6a3.192,3.192,0,0,1,3.142,3.221v24.762l-7.732-14.449q-3.852-7.2-8.833-7.475a16.912,16.912,0,0,0-9.394,2.213,22.819,22.819,0,0,0-3.905,3.064,10.33,10.33,0,0,0-2.542,3.907,10.581,10.581,0,0,0-5.113.2,22.938,22.938,0,0,0-4.8,2.024,18.079,18.079,0,0,0-6.507,7c-.063.12-.122.241-.179.364V283.971A3.192,3.192,0,0,1,210.88,280.749Z" transform="translate(-207.737 -280.749)" fill-rule="evenodd"/>
    </g>
    <g id="Grupo_34" data-name="Grupo 34" transform="translate(261.777 23.545)">
      <path id="Caminho_8" data-name="Caminho 8" d="M64.807,502.813h-3.94v-9.939a2.434,2.434,0,0,0-.822-2.045,2.933,2.933,0,0,0-1.849-.643,2.8,2.8,0,0,0-1.814.643,2.48,2.48,0,0,0-.8,2.045v9.939h-4V493.7q0-3.972,2.024-5.316a8.72,8.72,0,0,1,4.48-1.461,11.312,11.312,0,0,1,2.568.294,5.351,5.351,0,0,1,2.282,1.167,4.967,4.967,0,0,1,2.024-1.082,11.078,11.078,0,0,1,2.422-.379,8.46,8.46,0,0,1,4.621,1.342q2.109,1.346,2.111,5.436v9.111h-2a1.867,1.867,0,0,1-1.4-.554,1.962,1.962,0,0,1-.545-1.436h0v-7.949a2.436,2.436,0,0,0-.827-2.045,3.005,3.005,0,0,0-3.716,0,2.436,2.436,0,0,0-.827,2.045v9.939Z" transform="translate(-51.585 -475.079)" fill-rule="evenodd"/>
      <path id="Caminho_9" data-name="Caminho 9" d="M143.585,495.614a1.927,1.927,0,0,1-.569,1.4,1.854,1.854,0,0,1-1.372.583H139.7V483.057q0-4.092,2.335-5.575a9.266,9.266,0,0,1,5.074-1.491,8.024,8.024,0,0,1,2.875.554,5.4,5.4,0,0,1,2.311,1.611A9.472,9.472,0,0,1,154,484a9.7,9.7,0,0,1-1.707,5.964,5.294,5.294,0,0,1-4.383,2.219,5.667,5.667,0,0,1-2.505-.524,4.325,4.325,0,0,1-1.824-1.81v5.77Zm6.479-11.44a6.13,6.13,0,0,0-.851-3.516,2.8,2.8,0,0,0-2.447-1.227,2.734,2.734,0,0,0-2.384,1.227,6.131,6.131,0,0,0-.8,3.516,5.442,5.442,0,0,0,.851,3.336,2.8,2.8,0,0,0,2.447,1.227,2.7,2.7,0,0,0,2.33-1.227,5.774,5.774,0,0,0,.851-3.336Zm7.449,6.3a5.833,5.833,0,0,1-1.712-2.838,13.389,13.389,0,0,1-.511-3.71,11.945,11.945,0,0,1,.428-3.157,6.527,6.527,0,0,1,1.338-2.628,5.885,5.885,0,0,1,3.819-2.075,8.579,8.579,0,0,1,4.222.379,5.892,5.892,0,0,1,3.191,3.042,9.867,9.867,0,0,1,.968,4.5,11.293,11.293,0,0,1-.4,3.212,8.379,8.379,0,0,1-1.027,2.284,5.709,5.709,0,0,1-3.478,2.394,7.619,7.619,0,0,1-3.789.09,6.605,6.605,0,0,1-3.05-1.491Zm2.729-10.288a5.487,5.487,0,0,0-1.08,4,6.483,6.483,0,0,0,.968,3.71,2.546,2.546,0,0,0,1.2.788,2.656,2.656,0,0,0,1.737.06,2.932,2.932,0,0,0,1.571-1.317,6.757,6.757,0,0,0,.739-3.386,6.043,6.043,0,0,0-.657-3.157,2.984,2.984,0,0,0-1.508-1.346,2.72,2.72,0,0,0-1.712-.03,3.053,3.053,0,0,0-1.255.673Zm10.567,11.689v-3.1l8.153-9.231H173.2a1.892,1.892,0,0,1-1.367-.554,1.827,1.827,0,0,1-.569-1.366V476.35H183.69v3.331l-8.036,8.817h8.323v3.381Zm25.272-4.787h2.851a6.4,6.4,0,0,1-2.393,3.74,7.124,7.124,0,0,1-4.446,1.346,6.293,6.293,0,0,1-5.079-2.164A8.887,8.887,0,0,1,185.184,484a8.783,8.783,0,0,1,1.771-5.84,6.3,6.3,0,0,1,5.078-2.164,6.745,6.745,0,0,1,5.3,2.1,9.025,9.025,0,0,1,1.824,6.009v.638a1.016,1.016,0,0,1-.058.409h-9.86a4.129,4.129,0,0,0,.856,2.708,2.652,2.652,0,0,0,2.223.943,3.156,3.156,0,0,0,1.654-.414.725.725,0,0,0,.311-.2c.1-.095.2-.2.316-.324a1.257,1.257,0,0,1,.423-.469,1.684,1.684,0,0,1,1.056-.294Zm-6.839-4.578h5.813a3.8,3.8,0,0,0-.8-2.329,2.7,2.7,0,0,0-2.106-.813,2.743,2.743,0,0,0-2.053.813,3.378,3.378,0,0,0-.856,2.329Zm24.7,9.365h-2a1.868,1.868,0,0,1-1.4-.554,1.962,1.962,0,0,1-.545-1.436h0V481.94a2.434,2.434,0,0,0-.822-2.045,2.933,2.933,0,0,0-1.849-.643,2.8,2.8,0,0,0-1.814.643,2.479,2.479,0,0,0-.8,2.045v9.939h-4v-9.111q0-3.972,2.024-5.316a8.688,8.688,0,0,1,4.475-1.461,8.455,8.455,0,0,1,4.617,1.342q2.109,1.346,2.106,5.436v9.111Zm10.348-7.809a10.583,10.583,0,0,1-2.228.758c-.876.194-1.313.294-1.313.294a3.387,3.387,0,0,0-1.489.758,2.41,2.41,0,0,0-.4,1.286,1.908,1.908,0,0,0,.516,1.4,2.116,2.116,0,0,0,1.484.469,3.357,3.357,0,0,0,2.515-.937,3.517,3.517,0,0,0,.915-2.568V484.07Zm.91,7.171a6.944,6.944,0,0,1-2.539.793,22.871,22.871,0,0,1-2.369.144,5.855,5.855,0,0,1-3.595-1.142,4.379,4.379,0,0,1-1.542-3.77,4.11,4.11,0,0,1,1.4-3.511,7.92,7.92,0,0,1,3.566-1.406,3.181,3.181,0,0,0,.686-.085,8.9,8.9,0,0,1,.915-.15c1.673-.229,2.51-.738,2.51-1.516a1.1,1.1,0,0,0-.885-1.142,5.75,5.75,0,0,0-1.625-.264,3.977,3.977,0,0,0-1.425.24,1.582,1.582,0,0,0-.91.9h-3.818a4.541,4.541,0,0,1,1.6-2.992,6.464,6.464,0,0,1,4.388-1.347,8.4,8.4,0,0,1,4.792,1.112,3.773,3.773,0,0,1,1.654,3.271v5.316a6.866,6.866,0,0,1-.827,3.656,5.158,5.158,0,0,1-1.97,1.9Zm11.034.638a28.182,28.182,0,0,1-4.076-.06c-1.464-.115-2.2-1.072-2.2-2.862V471.772h2.058a1.8,1.8,0,0,1,1.313.584,1.929,1.929,0,0,1,.569,1.4v2.623h2.335v.823a1.911,1.911,0,0,1-.569,1.431,1.879,1.879,0,0,1-1.367.558h-.4v8.642c0,.663.379.992,1.138.992h1.2v3.052Zm3.144-1.4a5.833,5.833,0,0,1-1.712-2.838,13.389,13.389,0,0,1-.511-3.71,11.946,11.946,0,0,1,.428-3.157,6.528,6.528,0,0,1,1.338-2.628,5.885,5.885,0,0,1,3.819-2.075,8.579,8.579,0,0,1,4.222.379,5.892,5.892,0,0,1,3.191,3.042,9.867,9.867,0,0,1,.968,4.5,11.289,11.289,0,0,1-.4,3.212,8.376,8.376,0,0,1-1.026,2.284,5.709,5.709,0,0,1-3.478,2.394,7.618,7.618,0,0,1-3.789.09,6.6,6.6,0,0,1-3.05-1.491ZM242.1,480.19a5.487,5.487,0,0,0-1.08,4,6.483,6.483,0,0,0,.968,3.71,2.546,2.546,0,0,0,1.2.788,2.656,2.656,0,0,0,1.737.06,2.932,2.932,0,0,0,1.571-1.317,6.756,6.756,0,0,0,.739-3.386,6.043,6.043,0,0,0-.657-3.157,2.984,2.984,0,0,0-1.508-1.346,2.72,2.72,0,0,0-1.712-.03A3.052,3.052,0,0,0,242.1,480.19Z" transform="translate(-115.17 -464.145)" fill-rule="evenodd"/>
      <text id="_" data-name="®" transform="translate(133.292 4)" font-size="4" font-family="Arial-Black, Arial" font-weight="800"><tspan x="-3.199" y="0">®</tspan></text>
    </g>
  </g>
</svg>
