<svg xmlns="http://www.w3.org/2000/svg" width="17.323" height="17.323" viewBox="0 0 17.323 17.323">
  <g id="planet-earth" transform="translate(0 -0.001)">
    <g id="Grupo_29" data-name="Grupo 29" transform="translate(12.472 15.532)">
      <g id="Grupo_28" data-name="Grupo 28">
        <path id="Caminho_54" data-name="Caminho 54" d="M369.274,459.2a.338.338,0,0,0-.462-.123l-.013.008a.338.338,0,1,0,.34.585l.013-.008A.338.338,0,0,0,369.274,459.2Z" transform="translate(-368.63 -459.036)" fill="#fff"/>
      </g>
    </g>
    <g id="Grupo_31" data-name="Grupo 31" transform="translate(0 0.001)">
      <g id="Grupo_30" data-name="Grupo 30" transform="translate(0 0)">
        <path id="Caminho_55" data-name="Caminho 55" d="M16.162,4.334A8.659,8.659,0,0,0,.3,6.423,8.661,8.661,0,0,0,11.761,16.751a.338.338,0,0,0-.243-.632,7.931,7.931,0,0,1-7.632-1.049l.3-1.582.146-.047a1.054,1.054,0,0,0,.676-1.326l-.107-.33a.374.374,0,0,1,0-.233,1.053,1.053,0,0,0-.8-1.361l-.764-.149L1.869,8.921a.338.338,0,0,0-.309-.052L.7,9.149a7.976,7.976,0,0,1,0-.924c.034.032.056.053.07.067a.355.355,0,0,0,.331.169A4.914,4.914,0,0,0,1.7,8.393c.285-.042.569-.09.572-.09A.338.338,0,0,0,2.5,7.779L2.083,7.17l.594-.425a.339.339,0,0,0,.1-.107L3.7,5.031l.371-.4a1.429,1.429,0,0,0,.276-1.516,1.556,1.556,0,0,0-.616-.726A7.972,7.972,0,0,1,8.571.684l-.6.758-2.24.785a.338.338,0,0,0-.2.19L4.9,3.934a.338.338,0,0,0,.037.326l.914,1.28a3.215,3.215,0,0,0-.41.509c-.067.095-.13.184-.173.234l-.113.128a3.166,3.166,0,0,0-.544.755A2.016,2.016,0,0,0,4.777,9.2a1.9,1.9,0,0,0,1.793.769,2.634,2.634,0,0,0,.33-.067c.29-.072.382-.079.475.008.045.042.049.05.049.194a1.315,1.315,0,0,0,.03.335,1.069,1.069,0,0,0,.286.467.758.758,0,0,1,.123.157.842.842,0,0,1-.041.7l-.026.081a1.9,1.9,0,0,0,.248,1.357c.061.135.119.262.157.374.3.9.532,1.109.715,1.193a.705.705,0,0,0,.3.063,1.892,1.892,0,0,0,1.23-.74,1.04,1.04,0,0,0,.209-.493.539.539,0,0,1,.043-.151.886.886,0,0,1,.111-.143,1.174,1.174,0,0,0,.277-.46.745.745,0,0,1,.23-.36l.075-.08a1.085,1.085,0,0,0,.212-1.262c-.1-.334.077-.547.515-.954a3.654,3.654,0,0,0,.537-.579.73.73,0,0,0,.143-.678c-.122-.284-.433-.332-.683-.37a1.121,1.121,0,0,1-.3-.069,1.6,1.6,0,0,1-.461-.7c-.025-.055-.049-.109-.074-.162-.044-.094-.088-.208-.134-.328a2.838,2.838,0,0,0-.5-.931,2.161,2.161,0,0,0-.971-.431c-.119-.032-.232-.063-.306-.09a.338.338,0,0,0-.194-.012.878.878,0,0,0-.361.149.42.42,0,0,0-.12.162,3.87,3.87,0,0,1-.4-.243l-.007,0a.48.48,0,0,0-.03-.326c-.189-.4-.816-.368-.94-.358-.07.006-.159.009-.253.012-.148.005-.311.011-.473.029L6.6,5.243a.865.865,0,0,1,.812-.571H7.6A.338.338,0,1,0,7.6,4H7.411a1.544,1.544,0,0,0-1.31.73l-.5-.707.5-1.2,2.189-.767a.338.338,0,0,0,.153-.108L9.408.719a7.978,7.978,0,0,1,6.168,3.954,7.9,7.9,0,0,1,.8,1.936l-.143.128a.9.9,0,0,0-.3.657s0,.005,0,.008L15.7,6.76a.845.845,0,0,0-.152-.261l-.417-.488a.848.848,0,0,0-.646-.3h-.51a.49.49,0,0,0-.408.762l.052.078a3.749,3.749,0,0,1-1.117.663l-.7-1.34v-.3a.338.338,0,0,0-.1-.245l-.63-.6a.339.339,0,0,0-.121-.074l-.567-.2a.338.338,0,1,0-.224.638l.5.175.472.451v.237a.338.338,0,0,0,.038.157l.876,1.677a.338.338,0,0,0,.417.161l.255-.094a4.428,4.428,0,0,0,1.588-1.016.338.338,0,0,0,.042-.427l-.018-.027h.162a.172.172,0,0,1,.131.06l.417.488a.172.172,0,0,1,.031.053l.46,1.265a.338.338,0,0,0,.557.124L16.3,8.16a1.056,1.056,0,0,0,.28-.509A8.011,8.011,0,0,1,13.6,14.938a.338.338,0,0,0,.418.532A8.661,8.661,0,0,0,16.162,4.334ZM1.6,9.567,3,10.628a.338.338,0,0,0,.14.063l.841.164a.376.376,0,0,1,.285.486,1.046,1.046,0,0,0,0,.653l.107.33a.376.376,0,0,1-.241.474l-.336.109a.338.338,0,0,0-.228.258l-.271,1.413A8.072,8.072,0,0,1,1.75,12.655,7.941,7.941,0,0,1,.767,9.838Zm1.972-5.4-.4.426a.34.34,0,0,0-.046.063l-.9,1.578-.8.574a.338.338,0,0,0-.083.466l.3.441c-.173.026-.329.047-.432.058l-.062-.058c-.08-.075-.192-.174-.359-.32A8,8,0,0,1,3.168,2.873a.88.88,0,0,1,.548.5A.751.751,0,0,1,3.572,4.171ZM6.33,6.02a2.169,2.169,0,0,1,.757-.106c.1,0,.2-.007.286-.014a.92.92,0,0,1,.144,0,.338.338,0,0,0,.156.421c.063.034.152.093.245.155a1.949,1.949,0,0,0,.846.394.561.561,0,0,0,.46-.191l.014-.014a.362.362,0,0,0,.091-.111L9.5,6.6a2.253,2.253,0,0,1,.656.242,2.4,2.4,0,0,1,.361.711c.051.132.1.256.153.371.023.049.046.1.069.152a2.113,2.113,0,0,0,.708.988,1.4,1.4,0,0,0,.563.172l.074.012a3.271,3.271,0,0,1-.429.45c-.419.39-.94.875-.7,1.65.113.366.119.405-.064.6l-.07.075a1.39,1.39,0,0,0-.381.619.528.528,0,0,1-.138.215,1.511,1.511,0,0,0-.189.251,1.1,1.1,0,0,0-.122.359.414.414,0,0,1-.071.2,1.972,1.972,0,0,1-.427.378.558.558,0,0,1-.283.113,2.414,2.414,0,0,1-.364-.795c-.049-.145-.116-.294-.182-.437a1.45,1.45,0,0,1-.221-.87l.025-.078a1.478,1.478,0,0,0,.023-1.171,1.22,1.22,0,0,0-.246-.351.629.629,0,0,1-.129-.172.731.731,0,0,1-.011-.171.839.839,0,0,0-.263-.693,1.09,1.09,0,0,0-1.1-.171,2.122,2.122,0,0,1-.247.051A1.215,1.215,0,0,1,5.327,8.81a1.339,1.339,0,0,1-.1-1.354,2.569,2.569,0,0,1,.438-.595l.119-.134c.066-.076.139-.179.215-.288A2.446,2.446,0,0,1,6.33,6.02Z" transform="translate(0 -0.001)" fill="#fff"/>
      </g>
    </g>
    <g id="Grupo_33" data-name="Grupo 33" transform="translate(11.847 10.784)">
      <g id="Grupo_32" data-name="Grupo 32">
        <path id="Caminho_56" data-name="Caminho 56" d="M352.176,319.577l-.163-.614a.338.338,0,0,0-.624-.075c-.037.068-.07.141-.1.211a1.455,1.455,0,0,1-.169.307.748.748,0,0,1-.2.118.93.93,0,0,0-.563.548.991.991,0,0,0-.022.477.307.307,0,0,1-.009.2l0,.008a1.139,1.139,0,0,0-.027,1.123.7.7,0,0,0,.575.359.549.549,0,0,0,.09-.007c.345-.056.6-.415.817-1.13l.4-1.341A.339.339,0,0,0,352.176,319.577Zm-1.049,1.332a2.053,2.053,0,0,1-.259.61l-.021-.028c-.065-.092.032-.319.1-.469l0-.008a.952.952,0,0,0,.055-.564.354.354,0,0,1,0-.176c.013-.042.093-.083.212-.141.053-.026.111-.054.17-.088Z" transform="translate(-350.15 -318.712)" fill="#fff"/>
      </g>
    </g>
    <g id="Grupo_35" data-name="Grupo 35" transform="translate(8.663 3.995)">
      <g id="Grupo_34" data-name="Grupo 34">
        <path id="Caminho_57" data-name="Caminho 57" d="M256.517,118.086l-.023-.008a.338.338,0,0,0-.224.638l.023.008a.338.338,0,0,0,.224-.638Z" transform="translate(-256.044 -118.059)" fill="#fff"/>
      </g>
    </g>
  </g>
</svg>
