<svg xmlns="http://www.w3.org/2000/svg" width="215.724" height="45.5" viewBox="0 0 215.724 45.5">
  <g id="Grupo_369" data-name="Grupo 369" transform="translate(-338.113 -2812)">
    <path id="Caminho_55" data-name="Caminho 55" d="M335.681,278.6l-14.244.071c2.339-7.9-8.153-8.448-6.635-.593,2.131,11.022,15.12,9.492,20.677,3.654l0,14.772-28.177,0-.1-45.5c17.64.61,29.087,12.3,28.485,27.6ZM316.2,272.963l-1.681-1.767-.576.58,1.681,1.719.576-.532Z" transform="translate(61.833 2561)" fill-rule="evenodd"/>
    <path id="Caminho_57" data-name="Caminho 57" d="M205.612,278.6l14.243.071c-1.539-5.2,2.473-7.211,4.969-5.747l1.64-1.725.576.58-1.586,1.623c.933.9,1.467,2.451,1.037,4.676-2.131,11.022-15.12,9.492-20.677,3.654l0,14.772,28.177,0,.1-45.5c-17.64.61-29.087,12.3-28.484,27.6Z" transform="translate(132.524 2561)" fill-rule="evenodd"/>
    <g id="Grupo_157" data-name="Grupo 157" transform="translate(420.57 2824)">
      <path id="Caminho_38" data-name="Caminho 38" d="M198.888,526.318v-13.4a8.15,8.15,0,0,1,8.705-8.673,9.689,9.689,0,0,1,3.225.537,8.168,8.168,0,0,1,2.709,1.568,7.754,7.754,0,0,1,1.955,2.6,7.454,7.454,0,0,1,.668,3.139,7.118,7.118,0,0,1-2.476,5.6,9.343,9.343,0,0,1-6.419,2.181h-.412v-6.105h.348a3.012,3.012,0,0,0,1.759-.423,1.448,1.448,0,0,0,.6-1.255,1.57,1.57,0,0,0-.5-1.174,1.745,1.745,0,0,0-1.238-.477,1.513,1.513,0,0,0-1.341.59,3.624,3.624,0,0,0-.407,1.985v13.311Z" transform="translate(-198.888 -504.24)" fill-rule="evenodd"/>
      <path id="Caminho_39" data-name="Caminho 39" d="M198.888,526.318v-13.4a8.15,8.15,0,0,1,8.705-8.673,9.689,9.689,0,0,1,3.225.537,8.168,8.168,0,0,1,2.709,1.568,7.754,7.754,0,0,1,1.955,2.6,7.454,7.454,0,0,1,.668,3.139,7.118,7.118,0,0,1-2.476,5.6,9.343,9.343,0,0,1-6.419,2.181h-.412v-6.105h.348a3.012,3.012,0,0,0,1.759-.423,1.448,1.448,0,0,0,.6-1.255,1.57,1.57,0,0,0-.5-1.174,1.745,1.745,0,0,0-1.238-.477,1.513,1.513,0,0,0-1.341.59,3.624,3.624,0,0,0-.407,1.985v13.311Z" transform="translate(-198.888 -504.24)" fill-rule="evenodd"/>
      <path id="Caminho_40" data-name="Caminho 40" d="M236.636,515.447a4.259,4.259,0,0,0,1.3,3.138,4.326,4.326,0,0,0,3.166,1.3,4.422,4.422,0,1,0,0-8.845,4.331,4.331,0,0,0-3.166,1.288,4.218,4.218,0,0,0-1.3,3.122Zm-7.336.026a10.5,10.5,0,0,1,.9-4.286,11.236,11.236,0,0,1,2.585-3.649,11.78,11.78,0,0,1,3.807-2.415,12.182,12.182,0,0,1,4.512-.842,12.061,12.061,0,0,1,4.5.842,11.766,11.766,0,0,1,3.807,2.446,11.132,11.132,0,0,1,2.568,3.623,10.525,10.525,0,0,1,.885,4.28,10.679,10.679,0,0,1-.891,4.311,11.132,11.132,0,0,1-2.563,3.623,11.892,11.892,0,0,1-3.807,2.457,12.353,12.353,0,0,1-8.992,0,11.841,11.841,0,0,1-3.823-2.457,11.286,11.286,0,0,1-2.585-3.639,10.476,10.476,0,0,1-.9-4.295Z" transform="translate(-210.642 -504.256)" fill-rule="evenodd"/>
      <path id="Caminho_41" data-name="Caminho 41" d="M236.636,515.447a4.259,4.259,0,0,0,1.3,3.138,4.326,4.326,0,0,0,3.166,1.3,4.422,4.422,0,1,0,0-8.845,4.331,4.331,0,0,0-3.166,1.288,4.218,4.218,0,0,0-1.3,3.122Zm-7.336.026a10.5,10.5,0,0,1,.9-4.286,11.236,11.236,0,0,1,2.585-3.649,11.78,11.78,0,0,1,3.807-2.415,12.182,12.182,0,0,1,4.512-.842,12.061,12.061,0,0,1,4.5.842,11.766,11.766,0,0,1,3.807,2.446,11.132,11.132,0,0,1,2.568,3.623,10.525,10.525,0,0,1,.885,4.28,10.679,10.679,0,0,1-.891,4.311,11.132,11.132,0,0,1-2.563,3.623,11.892,11.892,0,0,1-3.807,2.457,12.353,12.353,0,0,1-8.992,0,11.841,11.841,0,0,1-3.823-2.457,11.286,11.286,0,0,1-2.585-3.639,10.476,10.476,0,0,1-.9-4.295Z" transform="translate(-210.642 -504.256)" fill-rule="evenodd"/>
      <path id="Caminho_42" data-name="Caminho 42" d="M271.262,504.881h7.173V518.4a2.072,2.072,0,0,0,.56,1.6,2.379,2.379,0,0,0,1.683.523h3.388v6.043h-4.4q-4.3,0-6.349-1.877t-2.052-5.815V504.881Z" transform="translate(-226.859 -504.488)" fill-rule="evenodd"/>
      <path id="Caminho_43" data-name="Caminho 43" d="M271.262,504.881h7.173V518.4a2.072,2.072,0,0,0,.56,1.6,2.379,2.379,0,0,0,1.683.523h3.388v6.043h-4.4q-4.3,0-6.349-1.877t-2.052-5.815V504.881Z" transform="translate(-226.859 -504.488)" fill-rule="evenodd"/>
      <path id="Caminho_44" data-name="Caminho 44" d="M294.982,526.565V504.881h7.173v21.684Z" transform="translate(-236.026 -504.488)" fill-rule="evenodd"/>
      <path id="Caminho_45" data-name="Caminho 45" d="M294.982,526.565V504.881h7.173v21.684Z" transform="translate(-236.026 -504.488)" fill-rule="evenodd"/>
      <path id="Caminho_46" data-name="Caminho 46" d="M312.26,528.355v-5.361h9.416v5.361Z" transform="translate(-242.704 -511.488)" fill-rule="evenodd"/>
      <path id="Caminho_47" data-name="Caminho 47" d="M312.26,528.355v-5.361h9.416v5.361Z" transform="translate(-242.704 -511.488)" fill-rule="evenodd"/>
      <path id="Caminho_48" data-name="Caminho 48" d="M332.848,526.318v-13.4a8.148,8.148,0,0,1,8.7-8.673,9.684,9.684,0,0,1,3.226.537,8.191,8.191,0,0,1,2.711,1.568,7.751,7.751,0,0,1,1.954,2.6,7.464,7.464,0,0,1,.667,3.139,7.116,7.116,0,0,1-2.476,5.6,9.341,9.341,0,0,1-6.419,2.181H340.8v-6.105h.348a3.009,3.009,0,0,0,1.759-.423,1.447,1.447,0,0,0,.6-1.255,1.566,1.566,0,0,0-.5-1.174,1.743,1.743,0,0,0-1.237-.477,1.512,1.512,0,0,0-1.341.59,3.625,3.625,0,0,0-.407,1.985v13.311Z" transform="translate(-250.661 -504.24)" fill-rule="evenodd"/>
      <path id="Caminho_49" data-name="Caminho 49" d="M332.848,526.318v-13.4a8.148,8.148,0,0,1,8.7-8.673,9.684,9.684,0,0,1,3.226.537,8.191,8.191,0,0,1,2.711,1.568,7.751,7.751,0,0,1,1.954,2.6,7.464,7.464,0,0,1,.667,3.139,7.116,7.116,0,0,1-2.476,5.6,9.341,9.341,0,0,1-6.419,2.181H340.8v-6.105h.348a3.009,3.009,0,0,0,1.759-.423,1.447,1.447,0,0,0,.6-1.255,1.566,1.566,0,0,0-.5-1.174,1.743,1.743,0,0,0-1.237-.477,1.512,1.512,0,0,0-1.341.59,3.625,3.625,0,0,0-.407,1.985v13.311Z" transform="translate(-250.661 -504.24)" fill-rule="evenodd"/>
      <path id="Caminho_50" data-name="Caminho 50" d="M401.78,510.938v15.627h-7.157V510.938h-4.344v-6.057h15.845v6.057Z" transform="translate(-272.857 -504.488)" fill-rule="evenodd"/>
      <path id="Caminho_51" data-name="Caminho 51" d="M401.78,510.938v15.627h-7.157V510.938h-4.344v-6.057h15.845v6.057Z" transform="translate(-272.857 -504.488)" fill-rule="evenodd"/>
      <path id="Caminho_52" data-name="Caminho 52" d="M369.7,504.853a38.288,38.288,0,0,1,6.536-.28h.74v6.8l-6.019.035.018,1.8,6,.006v4.465l-6,0-.018,1.8,6.019.034v6.8h-.74a38.1,38.1,0,0,1-6.536-.281c-5.685-1.058-5.77-4.461-5.732-10.595-.037-6.135.047-9.538,5.732-10.6Z" transform="translate(-262.686 -504.367)" fill-rule="evenodd"/>
      <path id="Caminho_53" data-name="Caminho 53" d="M369.7,504.853a38.288,38.288,0,0,1,6.536-.28h.74v6.8l-6.019.035.018,1.8,6,.006v4.465l-6,0-.018,1.8,6.019.034v6.8h-.74a38.1,38.1,0,0,1-6.536-.281c-5.685-1.058-5.77-4.461-5.732-10.595-.037-6.135.047-9.538,5.732-10.6Z" transform="translate(-262.686 -504.367)" fill-rule="evenodd"/>
    </g>
  </g>
</svg>
