<svg width="167" height="89" viewBox="0 0 167 89" fill="none" xmlns="http://www.w3.org/2000/svg">
<path d="M26.7759 46.7449V42.1346H19.8262V32.2153H15.1887V46.7449H26.7759Z" fill="black"/>
<path d="M39.8113 46.7449V42.1346H32.8616V41.0427H35.9482V37.9197H32.8616V36.7841H39.8113V32.1738H28.2175V46.7449H39.8113Z" fill="black"/>
<path d="M35.1191 67.7911L31.5645 64.2554H28.2832V78.7849H32.9185V72.1262L35.106 74.3101V78.7849H39.7501V68.8853L35.1126 64.275L35.1191 67.7911Z" fill="black"/>
<path d="M39.8113 48.2954V48.2539H28.2175V62.8162H39.855V48.2954H39.8113ZM32.8616 58.2147V52.8641H35.2241V58.2147H32.8616Z" fill="black"/>
<path d="M26.7759 64.2139H15.1821V78.7827H26.8196V64.2554H26.7693L26.7759 64.2139ZM19.8262 74.1725V68.8219H22.1887V74.1725H19.8262Z" fill="black"/>
<path d="M23.4968 48.2954L20.9834 50.8025L18.4678 48.2954H15.1887V62.825H19.8262V58.503V56.1662L20.9834 57.3346L22.1384 56.1662V58.503V62.825H26.7759V48.2954H23.4968Z" fill="black"/>
<path d="M45 84H10V27H45V84ZM11.2075 82.801H43.8013V28.199H11.2075V82.801Z" fill="black"/>
<line x1="66.5" y1="79" x2="66.5" y2="27" stroke="black"/>
<path d="M150.798 59.4667H140.628C140.336 59.465 140.049 59.4019 139.786 59.2819C139.522 59.162 139.289 58.9879 139.102 58.7719C141.654 53.8831 143.358 48.6221 144.145 43.1992H158C157.92 46.4367 157.172 49.6262 155.801 52.5809C154.875 54.6866 153.753 56.7062 152.447 58.6143C152.268 58.8787 152.023 59.0953 151.735 59.2443C151.447 59.3933 151.125 59.4697 150.798 59.4667V59.4667ZM136.323 54.0601C134.534 50.6933 133.544 46.9829 133.425 43.1992L139 43.1992C138.561 48.0122 136.368 53.823 136.347 53.8816C136.347 53.8816 136.338 53.9437 136.324 54.058L136.323 54.0601Z" fill="black"/>
<path d="M89.1125 69.8837C88.8005 69.9053 88.4877 69.8538 88.2007 69.7336C87.9136 69.6134 87.6608 69.428 87.4637 69.1932C87.0555 68.657 86.8605 67.9967 86.9141 67.3329C86.8878 66.6457 87.0592 65.965 87.4091 65.3663C87.5945 65.1154 87.8437 64.9151 88.1328 64.7847C88.4218 64.6544 88.7407 64.5985 89.0587 64.6224C89.5506 64.6488 90.0342 64.7566 90.4884 64.9412L90.7636 64.091C90.2207 63.8825 89.6422 63.7738 89.0579 63.7707C88.6058 63.7424 88.1529 63.8138 87.7334 63.9795C87.314 64.1452 86.9389 64.4009 86.6366 64.7272C86.0647 65.4597 85.7739 66.3617 85.8141 67.2787C85.7907 68.1772 86.0804 69.0572 86.6366 69.7774C86.939 70.0885 87.3057 70.3345 87.713 70.4993C88.1203 70.6641 88.559 70.7441 89.0004 70.7339H89.0557C89.6642 70.7439 90.2667 70.6164 90.8152 70.3616L90.5954 69.4578C90.1645 69.7565 89.6422 69.9065 89.1125 69.8837V69.8837ZM96.0399 63.7707C95.6124 63.7427 95.1841 63.8151 94.7917 63.9816C94.3993 64.1482 94.0543 64.404 93.7861 64.7272C93.2063 65.4558 92.9146 66.3606 92.9636 67.2787C92.9146 68.1968 93.2063 69.1016 93.7861 69.8302C94.0502 70.1577 94.3946 70.4165 94.7881 70.583C95.1816 70.7495 95.6119 70.8185 96.0399 70.7838C96.4675 70.8118 96.8958 70.7394 97.2882 70.5728C97.6806 70.4063 98.0256 70.1505 98.2937 69.8273C98.8736 69.0987 99.1653 68.1939 99.1163 67.2758C99.1653 66.3577 98.8736 65.4529 98.2937 64.7243C98.0135 64.4152 97.6663 64.1694 97.2768 64.0046C96.8873 63.8398 96.465 63.7599 96.0399 63.7707V63.7707ZM97.4697 69.1932C97.307 69.4244 97.0841 69.61 96.8235 69.7314C96.5629 69.8527 96.2738 69.9055 95.9854 69.8844C95.6995 69.8878 95.4168 69.8272 95.1592 69.7073C94.9017 69.5874 94.6764 69.4114 94.501 69.1932C94.17 68.6278 94.0172 67.9812 94.0613 67.3329V67.3329C94.0187 66.6778 94.192 66.0265 94.5563 65.4726C94.7192 65.2418 94.9421 65.0565 95.2025 64.9354C95.4629 64.8144 95.7518 64.7617 96.0399 64.7829C96.3258 64.7794 96.6085 64.8401 96.866 64.96C97.1236 65.0799 97.3489 65.2559 97.5243 65.4741C97.8744 66.0338 98.0466 66.6807 98.0193 67.3344C98.0211 67.9918 97.8303 68.6363 97.4689 69.1932H97.4697ZM104.947 67.6518C105.364 67.5964 105.751 67.4096 106.047 67.1203C106.21 66.9504 106.334 66.7486 106.41 66.5285C106.486 66.3083 106.512 66.075 106.486 65.8443C106.509 65.5653 106.455 65.2856 106.329 65.0335C106.203 64.7815 106.011 64.566 105.772 64.4091C105.161 64.0509 104.45 63.8837 103.738 63.9305H101.923V70.6811H102.97V67.9699H103.575C103.789 67.9582 104.001 68.0143 104.179 68.1297C104.368 68.2704 104.518 68.4526 104.619 68.6611L105.718 70.6276H106.873L105.774 68.5548C105.621 68.1662 105.326 67.8449 104.946 67.651L104.947 67.6518ZM103.738 67.1203H102.967V64.7829H103.737C104.177 64.7381 104.62 64.8313 105.001 65.049C105.154 65.145 105.277 65.2805 105.354 65.4402C105.432 65.5999 105.462 65.7774 105.441 65.9527C105.45 66.1266 105.414 66.3 105.338 66.4576C105.261 66.6152 105.146 66.7521 105.001 66.8565C104.62 67.0731 104.177 67.1653 103.737 67.1196L103.738 67.1203ZM113.579 64.5175C112.969 64.1048 112.234 63.8991 111.49 63.9326H109.62V70.6833H110.667V68.3979H111.49C112.236 68.449 112.977 68.2416 113.579 67.813C113.836 67.6075 114.04 67.3464 114.173 67.051C114.307 66.7555 114.367 66.4338 114.349 66.1118C114.361 65.8054 114.298 65.5005 114.164 65.2226C114.03 64.9448 113.829 64.702 113.578 64.5147L113.579 64.5175ZM112.809 67.1724C112.414 67.4093 111.953 67.5208 111.489 67.4912H110.666V64.7272H111.489C111.952 64.7053 112.411 64.8165 112.809 65.0468C112.97 65.1729 113.095 65.3368 113.172 65.5229C113.249 65.7089 113.275 65.9109 113.249 66.1096C113.248 66.641 113.138 67.0133 112.809 67.1724Z" fill="black"/>
<path d="M134.36 59.944L134.194 59.7842L134.36 59.944Z" fill="black"/>
<path d="M125.453 45.9633H127.817C128.176 47.7106 128.653 49.4332 129.246 51.1197C128.627 49.4408 128.149 47.7164 127.817 45.9633H125.453Z" fill="black"/>
<path d="M131.666 65.3121C132.269 64.3667 132.82 63.3907 133.315 62.3883C132.863 63.4115 132.31 64.3905 131.666 65.3121Z" fill="black"/>
<path d="M134.524 60.1557C134.195 60.7406 133.919 61.3248 133.645 61.9097C133.92 61.272 134.25 60.6871 134.524 60.1557Z" fill="black"/>
<path d="M142.278 48.0361C142.993 45.1123 143.267 43.1992 143.267 43.1992H139.748C139.48 45.1117 139.113 47.0101 138.648 48.8871C138.593 49.0468 138.593 49.2059 138.538 49.3122C138.043 51.1197 137.439 53.0327 136.724 54.9465C136.449 55.6377 136.229 56.2754 135.902 57.0194L135.792 56.9131L135.736 56.8596C134.825 55.3901 134.017 53.8628 133.317 52.2881C133.296 52.2671 133.281 52.2419 133.271 52.2142C133.261 52.1866 133.258 52.1572 133.262 52.1283C133.127 51.8359 133.017 51.5337 132.931 51.2245C131.978 48.6679 131.35 46.0087 131.061 43.3055V43.2527H125.453V45.964H127.817C128.176 47.7113 128.653 49.4339 129.246 51.1204C130.341 54.1122 131.898 56.9263 133.865 59.4667C133.945 59.5983 134.058 59.708 134.195 59.7856L134.36 59.9454L134.525 60.1051C134.195 60.69 133.92 61.2742 133.646 61.8591C133.578 62.0576 133.465 62.2391 133.316 62.3905C132.821 63.3471 132.269 64.3571 131.666 65.3144H134.8C135.515 64.3022 136.175 63.188 136.78 62.1252C137.469 60.9172 138.093 59.6753 138.649 58.4046C139.364 56.8102 139.969 55.2678 140.463 53.7774C140.548 53.4683 140.659 53.1661 140.793 52.8737C140.845 52.5722 140.957 52.2834 141.123 52.0234C141.398 51.1732 141.618 50.3222 141.838 49.5783C141.947 49.0996 142.113 48.6217 142.223 48.1959C142.278 48.0896 142.278 48.0896 142.278 48.0361Z" fill="black"/>
<path d="M132.105 70.9992C133.289 70.9992 134.249 70.0712 134.249 68.9264C134.249 67.7816 133.289 66.8535 132.105 66.8535C130.921 66.8535 129.961 67.7816 129.961 68.9264C129.961 70.0712 130.921 70.9992 132.105 70.9992Z" fill="black"/>
<path d="M151.457 70.9992C152.641 70.9992 153.601 70.0712 153.601 68.9264C153.601 67.7816 152.641 66.8535 151.457 66.8535C150.273 66.8535 149.313 67.7816 149.313 68.9264C149.313 70.0712 150.273 70.9992 151.457 70.9992Z" fill="black"/>
<path d="M92.2465 60.5816C88.6183 60.5816 86.529 58.7741 86.529 54.6284V45.8569H84V43.0929H86.529V39.1598L90.1026 39V43.0929H94.501V45.8569H90.1026V54.5749C90.1026 56.8075 91.0919 57.7113 92.8514 57.7113C93.5403 57.7385 94.2288 57.6484 94.8854 57.4452L95.1052 60.2092C94.1728 60.4516 93.212 60.5767 92.2465 60.5816V60.5816Z" fill="black"/>
<path d="M105.991 42.7206C106.843 42.6856 107.696 42.7753 108.52 42.9866L108.025 45.857C107.455 45.6868 106.862 45.5972 106.266 45.5909C104.859 45.5608 103.465 45.8521 102.197 46.4411V60.1557H98.6243V44.3155C100.922 43.2484 103.442 42.7029 105.991 42.7206V42.7206Z" fill="black"/>
<path d="M116.821 60.5788C112.203 60.5788 109.894 58.4524 109.894 55.4758C109.894 51.9678 112.81 50.2666 116.821 50.2666C118.06 50.2505 119.297 50.3755 120.505 50.639V49.206C120.505 46.8671 119.131 45.591 116.436 45.591C114.838 45.5909 113.253 45.8793 111.763 46.4412L111.049 43.7329C112.874 43.0574 114.812 42.7142 116.766 42.7207C121.604 42.7207 123.968 45.1659 123.968 49.365V59.0395C121.76 60.1323 119.3 60.6621 116.821 60.5788V60.5788ZM120.505 57.3361V52.9258C119.431 52.6401 118.321 52.497 117.207 52.5007C115.007 52.5007 113.413 53.2447 113.413 55.3204C113.413 57.1279 114.787 58.0316 117.097 58.0316C118.276 58.089 119.45 57.8501 120.505 57.3383V57.3361Z" fill="black"/>
<path d="M32.8433 13V5.17969H34.707C35.6201 5.17969 36.3291 5.46615 36.834 6.03906C37.3389 6.6084 37.5913 7.41048 37.5913 8.44531V9.75586C37.5913 10.7907 37.3353 11.591 36.8232 12.1567C36.3112 12.7189 35.5682 13 34.5942 13H32.8433ZM33.8262 6.02832V12.1567H34.6157C35.3068 12.1567 35.8117 11.9598 36.1304 11.5659C36.4491 11.1685 36.612 10.5812 36.6191 9.8042V8.41846C36.6191 7.59489 36.4598 6.99154 36.1411 6.6084C35.826 6.22168 35.348 6.02832 34.707 6.02832H33.8262ZM42.8765 9.38525H40.1104V12.1567H43.333V13H39.1274V5.17969H43.2793V6.02832H40.1104V8.54199H42.8765V9.38525ZM48.0112 11.0234C48.0112 10.6331 47.9056 10.3341 47.6943 10.1265C47.4831 9.91878 47.1017 9.71647 46.5503 9.51953C45.9989 9.32259 45.5763 9.1167 45.2827 8.90186C44.9927 8.68343 44.7743 8.43636 44.6274 8.16064C44.4842 7.88135 44.4126 7.56266 44.4126 7.20459C44.4126 6.58512 44.6185 6.07487 45.0303 5.67383C45.4456 5.27279 45.9881 5.07227 46.6577 5.07227C47.116 5.07227 47.5243 5.17611 47.8823 5.38379C48.2404 5.58789 48.5161 5.87256 48.7095 6.23779C48.9028 6.60303 48.9995 7.00407 48.9995 7.44092H48.0112C48.0112 6.95752 47.8949 6.58333 47.6621 6.31836C47.4294 6.05339 47.0946 5.9209 46.6577 5.9209C46.2603 5.9209 45.9523 6.0319 45.7339 6.25391C45.5155 6.47591 45.4062 6.78743 45.4062 7.18848C45.4062 7.5179 45.5244 7.79362 45.7607 8.01562C45.9971 8.23763 46.3623 8.43636 46.8564 8.61182C47.6263 8.86605 48.1759 9.17936 48.5054 9.55176C48.8384 9.92415 49.0049 10.4111 49.0049 11.0127C49.0049 11.6465 48.799 12.1549 48.3872 12.5381C47.9754 12.9176 47.415 13.1074 46.7061 13.1074C46.2513 13.1074 45.8306 13.009 45.4438 12.812C45.0607 12.6115 44.7581 12.3322 44.5361 11.9741C44.3177 11.6125 44.2085 11.1989 44.2085 10.7334H45.1968C45.1968 11.2168 45.3311 11.5928 45.5996 11.8613C45.8717 12.1299 46.2406 12.2642 46.7061 12.2642C47.1393 12.2642 47.4652 12.1532 47.6836 11.9312C47.902 11.7091 48.0112 11.4066 48.0112 11.0234ZM51.3252 13H50.3423V5.17969H51.3252V13ZM57.9424 12.0278L57.7705 12.2427C57.2764 12.8192 56.5531 13.1074 55.6006 13.1074C54.7555 13.1074 54.0913 12.8281 53.6079 12.2695C53.1281 11.7074 52.8828 10.9142 52.8721 9.89014V8.354C52.8721 7.2583 53.0905 6.43831 53.5273 5.89404C53.9678 5.34619 54.6248 5.07227 55.4985 5.07227C56.2433 5.07227 56.8252 5.27995 57.2441 5.69531C57.6667 6.11068 57.8994 6.70329 57.9424 7.47314H56.9595C56.9201 6.98617 56.784 6.60661 56.5513 6.33447C56.3221 6.05876 55.973 5.9209 55.5039 5.9209C54.9417 5.9209 54.5299 6.10531 54.2686 6.47412C54.0072 6.83936 53.8711 7.4248 53.8604 8.23047V9.82568C53.8604 10.6134 54.0107 11.2186 54.3115 11.6411C54.6123 12.0601 55.0438 12.2695 55.606 12.2695C56.1359 12.2695 56.5387 12.1406 56.8145 11.8828L56.9595 11.7485V9.94385H55.5308V9.10596H57.9424V12.0278ZM64.6562 13H63.668L60.5366 6.97363V13H59.5483V5.17969H60.5366L63.6787 11.2329V5.17969H64.6562V13ZM72.6323 9.38525H69.8662V12.1567H73.0889V13H68.8833V5.17969H73.0352V6.02832H69.8662V8.54199H72.6323V9.38525ZM81.2314 6.02832H79.1743V13H78.1914V6.02832H76.1396V5.17969H81.2314V6.02832ZM86.1353 9.38525H83.3691V12.1567H86.5918V13H82.3862V5.17969H86.5381V6.02832H83.3691V8.54199H86.1353V9.38525ZM92.7578 10.5186C92.7148 11.3564 92.4785 11.9974 92.0488 12.4414C91.6227 12.8854 91.0194 13.1074 90.2388 13.1074C89.4546 13.1074 88.8315 12.8102 88.3696 12.2158C87.9077 11.6178 87.6768 10.8086 87.6768 9.78809V8.37012C87.6768 7.35319 87.9131 6.54932 88.3857 5.9585C88.862 5.36768 89.5101 5.07227 90.3301 5.07227C91.0856 5.07227 91.6693 5.29964 92.0811 5.75439C92.4964 6.20557 92.722 6.85189 92.7578 7.69336H91.7642C91.7212 7.05599 91.5869 6.60124 91.3613 6.3291C91.1357 6.05697 90.792 5.9209 90.3301 5.9209C89.7965 5.9209 89.3866 6.13037 89.1001 6.54932C88.8136 6.96468 88.6704 7.5752 88.6704 8.38086V9.81494C88.6704 10.6063 88.8029 11.2132 89.0679 11.6357C89.3364 12.0583 89.7267 12.2695 90.2388 12.2695C90.7508 12.2695 91.1196 12.1424 91.3452 11.8882C91.5708 11.634 91.7104 11.1774 91.7642 10.5186H92.7578ZM99.2031 13H98.2148L95.0835 6.97363V13H94.0952V5.17969H95.0835L98.2256 11.2329V5.17969H99.2031V13ZM105.992 9.77734C105.992 10.8444 105.765 11.6662 105.31 12.2427C104.855 12.8192 104.209 13.1074 103.371 13.1074C102.565 13.1074 101.928 12.8281 101.459 12.2695C100.993 11.7074 100.752 10.9142 100.734 9.89014V8.41846C100.734 7.37288 100.965 6.55469 101.427 5.96387C101.889 5.36947 102.533 5.07227 103.36 5.07227C104.184 5.07227 104.825 5.35693 105.283 5.92627C105.745 6.49202 105.981 7.30127 105.992 8.354V9.77734ZM105.009 8.40771C105.009 7.58057 104.873 6.96647 104.601 6.56543C104.333 6.16081 103.919 5.9585 103.36 5.9585C102.82 5.9585 102.41 6.1626 102.13 6.5708C101.855 6.979 101.715 7.58057 101.711 8.37549V9.77734C101.711 10.5758 101.849 11.1846 102.125 11.6035C102.404 12.0225 102.82 12.2319 103.371 12.2319C103.923 12.2319 104.331 12.0386 104.596 11.6519C104.861 11.2651 104.999 10.6725 105.009 9.87402V8.40771ZM108.5 12.1567H111.567V13H107.512V5.17969H108.5V12.1567ZM117.476 9.77734C117.476 10.8444 117.248 11.6662 116.793 12.2427C116.339 12.8192 115.692 13.1074 114.854 13.1074C114.049 13.1074 113.411 12.8281 112.942 12.2695C112.477 11.7074 112.235 10.9142 112.217 9.89014V8.41846C112.217 7.37288 112.448 6.55469 112.91 5.96387C113.372 5.36947 114.017 5.07227 114.844 5.07227C115.667 5.07227 116.308 5.35693 116.767 5.92627C117.229 6.49202 117.465 7.30127 117.476 8.354V9.77734ZM116.493 8.40771C116.493 7.58057 116.357 6.96647 116.084 6.56543C115.816 6.16081 115.402 5.9585 114.844 5.9585C114.303 5.9585 113.893 6.1626 113.614 6.5708C113.338 6.979 113.198 7.58057 113.195 8.37549V9.77734C113.195 10.5758 113.333 11.1846 113.608 11.6035C113.888 12.0225 114.303 12.2319 114.854 12.2319C115.406 12.2319 115.814 12.0386 116.079 11.6519C116.344 11.2651 116.482 10.6725 116.493 9.87402V8.40771ZM123.889 12.0278L123.717 12.2427C123.223 12.8192 122.499 13.1074 121.547 13.1074C120.702 13.1074 120.038 12.8281 119.554 12.2695C119.074 11.7074 118.829 10.9142 118.818 9.89014V8.354C118.818 7.2583 119.037 6.43831 119.474 5.89404C119.914 5.34619 120.571 5.07227 121.445 5.07227C122.19 5.07227 122.771 5.27995 123.19 5.69531C123.613 6.11068 123.846 6.70329 123.889 7.47314H122.906C122.866 6.98617 122.73 6.60661 122.498 6.33447C122.268 6.05876 121.919 5.9209 121.45 5.9209C120.888 5.9209 120.476 6.10531 120.215 6.47412C119.953 6.83936 119.817 7.4248 119.807 8.23047V9.82568C119.807 10.6134 119.957 11.2186 120.258 11.6411C120.559 12.0601 120.99 12.2695 121.552 12.2695C122.082 12.2695 122.485 12.1406 122.761 11.8828L122.906 11.7485V9.94385H121.477V9.10596H123.889V12.0278ZM126.521 13H125.538V5.17969H126.521V13ZM131.892 10.959H129.249L128.642 13H127.632L130.151 5.17969H130.995L133.519 13H132.509L131.892 10.959ZM129.507 10.1104H131.639L130.57 6.55469L129.507 10.1104Z" fill="black"/>
<rect x="0.5" y="21.5" width="166" height="67" rx="9.5" stroke="black"/>
</svg>
