<svg xmlns="http://www.w3.org/2000/svg" width="257.792" height="72.905" viewBox="0 0 257.792 72.905">
  <g id="Grupo_13" data-name="Grupo 13" transform="translate(-362.811 -700)">
    <path id="Caminho_13" data-name="Caminho 13" d="M395.825,170.439a16.012,16.012,0,0,0,7.168,1.9c2.474,0,3.805-1.333,3.805-2.98,0-1.586-.951-2.663-3.616-4.186-3.3-1.9-5.771-4.568-5.771-8.056,0-6.153,5.265-10.53,12.939-10.53a15.471,15.471,0,0,1,7.357,1.459l-2.029,6.216a13.108,13.108,0,0,0-5.454-1.205c-2.474,0-4.059,1.142-4.059,2.917,0,1.395,1.142,2.411,3.362,3.616,3.425,1.966,6.279,4.631,6.279,8.373,0,6.977-5.645,10.91-13.51,10.847-3.616-.063-6.978-1.016-8.625-2.157Z" transform="translate(42.098 580.559)" fill="#fff"/>
    <path id="Caminho_14" data-name="Caminho 14" d="M522.61,124.343l8.5-44.413h8.753L536.5,97.147l.126-.113a11.923,11.923,0,0,1,9.259-4.718c4.568,0,7.168,2.938,7.168,7.885a34.645,34.645,0,0,1-.634,5.888l-3.425,18.256h-8.753l3.3-17.708a21.168,21.168,0,0,0,.382-3.969c0-1.9-.76-3.284-2.728-3.284-2.791,0-5.773,3.728-6.914,9.5l-2.919,15.461H522.61Z" transform="translate(-62.93 634.857)" fill="#fff"/>
    <path id="Caminho_15" data-name="Caminho 15" d="M728.468,158.483c0,10.847-6.978,20.108-17.317,20.108-7.865,0-12.05-5.456-12.05-12.243,0-10.593,6.978-20.108,17.506-20.108,8.184,0,11.861,5.964,11.861,12.243Zm-20.423,7.676c0,3.171,1.268,5.708,4.25,5.708,4.629,0,7.231-8.247,7.231-13.638,0-2.6-1.016-5.263-4.123-5.263C710.644,152.964,708.044,161.146,708.044,166.159Z" transform="translate(-206.69 580.844)" fill="#fff"/>
    <path id="Caminho_16" data-name="Caminho 16" d="M846.18,192l6.088-32.008c.7-3.616,1.395-8.293,1.777-11.585h7.739l-.508,4.935h.126c2.346-3.29,5.773-5.5,9.259-5.5,6.405,0,9.007,5.117,9.007,11.016,0,10.658-6.723,21.154-17,21.154-2.157,0-4.122-.35-5.139-1.172h-.191L854.929,192Zm12.5-19.969a5.426,5.426,0,0,0,3.616,1.268c4.885,0,8.247-8.056,8.247-13.7,0-2.346-.825-4.82-3.488-4.82-3.045,0-5.9,3.616-6.914,9.07Z" transform="translate(-326.494 579.541)" fill="#fff"/>
    <path id="Caminho_17" data-name="Caminho 17" d="M1028.15,123.944l5.9-31.254h8.816l-5.962,31.254ZM1039.5,89.4c-2.474,0-4.122-2.116-4.122-4.716a5.143,5.143,0,0,1,5.011-5.244,4.37,4.37,0,0,1,4.377,4.632,5.162,5.162,0,0,1-5.137,5.33Z" transform="translate(-474.719 635.256)" fill="#fff"/>
    <path id="Caminho_18" data-name="Caminho 18" d="M1116.39,118.576l4.631-24.674h-4.059l1.269-6.58h4.059l.254-1.573c.7-3.679,2.092-7.416,5.074-9.953a13.024,13.024,0,0,1,8.564-2.947,12.343,12.343,0,0,1,4.757.747l-1.712,6.843a8.594,8.594,0,0,0-2.791-.447c-2.919,0-4.7,2.776-5.2,5.758l-.317,1.571H1137L1135.8,93.9h-6.025l-4.631,24.674Z" transform="translate(-546.595 640.624)" fill="#fff"/>
    <path id="Caminho_19" data-name="Caminho 19" d="M1225.3,150.89l1.395,13.99c.382,3.108.634,5.749.76,7.394h.126c.7-1.645,1.333-4.1,2.6-7.457l5.328-13.925h9.133l-10.719,22.881c-3.806,7.865-7.485,13.6-11.481,17.339a19.9,19.9,0,0,1-8.564,4.736l-2.411-7.433a19.051,19.051,0,0,0,4.948-2.478,14.986,14.986,0,0,0,4.757-5.267,1.675,1.675,0,0,0,.191-1.378l-5.265-28.4Z" transform="translate(-624.042 577.056)" fill="#fff"/>
    <path id="Caminho_22" data-name="Caminho 22" d="M43.264,8.518l-2.136.662a14.9,14.9,0,0,0-1.022-2.513C38.592,3.779,36.374,2.249,33.7,2.246h-.009c-.185,0-.371.017-.556.033-.078-.095-.158-.189-.243-.278A5.621,5.621,0,0,0,28.431.2c-3.46.1-6.906,2.6-9.7,7.036a27.845,27.845,0,0,0-3.885,10.083c-3.972,1.23-6.752,2.092-6.812,2.11-2,.629-2.068.692-2.331,2.581-.2,1.43-5.445,42-5.445,42L43.792,71.54V8.429a2.638,2.638,0,0,0-.529.089ZM33.212,11.631,25.87,13.9a17.413,17.413,0,0,1,3.707-7.2A7.413,7.413,0,0,1,32.07,4.894a16.5,16.5,0,0,1,1.142,6.737ZM28.5,2.5a3.541,3.541,0,0,1,2.081.545,10.039,10.039,0,0,0-2.687,2.092,20.149,20.149,0,0,0-4.553,9.549L17.31,16.553C18.5,11,23.157,2.654,28.5,2.5ZM21.766,34.163c.234,3.7,9.977,4.512,10.524,13.187.43,6.824-3.62,11.492-9.456,11.861a14.17,14.17,0,0,1-10.86-3.69l1.484-6.315s3.881,2.928,6.988,2.732a2.746,2.746,0,0,0,2.682-2.947c-.3-4.831-8.238-4.547-8.74-12.484-.421-6.68,3.965-13.449,13.645-14.061a11.938,11.938,0,0,1,5.639.716l-2.214,8.28a12.575,12.575,0,0,0-5.4-.94c-4.293.276-4.339,2.984-4.295,3.661ZM35.512,10.919a18.917,18.917,0,0,0-1.051-6.3c2.626.5,3.919,3.468,4.464,5.239Z" transform="translate(362.551 699.807)" fill="#fff"/>
    <path id="Caminho_23" data-name="Caminho 23" d="M242.76,110.563l18.059-4.49s-7.776-52.571-7.824-52.932a.7.7,0,0,0-.625-.582c-.26-.022-5.345-.1-5.345-.1s-3.1-3.01-4.265-4.15Z" transform="translate(165.022 660.613)" fill="#fff"/>
  </g>
</svg>
