<svg xmlns="http://www.w3.org/2000/svg" width="190.499" height="85.2" viewBox="0 0 190.499 85.2">
  <g id="Grupo_20" data-name="Grupo 20" transform="translate(-4076 -2721)">
    <path id="Subtração_1" data-name="Subtração 1" d="M44.723,43.308H18.541a5.162,5.162,0,0,1-3.926-1.85A133.1,133.1,0,0,0,27.6,0H63.264c0,7.683-1.906,16.087-5.661,24.98a99.942,99.942,0,0,1-8.634,16.064A5.015,5.015,0,0,1,44.723,43.308ZM7.461,28.917l0,0C2.51,18.575,0,8.847,0,0H14.353C13.22,12.815,7.577,28.287,7.52,28.442c0,0-.021.165-.058.47Z" transform="translate(4203.234 2732.181)" fill="#fff"/>
    <g id="Grupo_15" data-name="Grupo 15" transform="translate(4080.67 2786.953)">
      <g id="Grupo_14" data-name="Grupo 14" transform="translate(0 0)">
        <path id="Caminho_31" data-name="Caminho 31" d="M12.392,62.876a5.012,5.012,0,0,1-4.246-1.84,7.387,7.387,0,0,1-1.415-4.954A9.9,9.9,0,0,1,8,50.846a4.763,4.763,0,0,1,4.246-1.981,11.083,11.083,0,0,1,3.68.849l.708-2.264A12.077,12.077,0,0,0,12.25,46.6a7.707,7.707,0,0,0-6.227,2.548A10.536,10.536,0,0,0,3.9,55.941a10.671,10.671,0,0,0,2.123,6.652,8.078,8.078,0,0,0,6.086,2.548h.142a10.064,10.064,0,0,0,4.529-.991l-.566-2.406A6.086,6.086,0,0,1,12.392,62.876ZM30.224,46.6a6.845,6.845,0,0,0-5.8,2.548A10.271,10.271,0,0,0,22.3,55.941a10.271,10.271,0,0,0,2.123,6.793c1.415,1.84,3.255,2.548,5.8,2.548a6.845,6.845,0,0,0,5.8-2.548,10.271,10.271,0,0,0,2.123-6.793,10.271,10.271,0,0,0-2.123-6.793A7.456,7.456,0,0,0,30.224,46.6ZM33.9,61.036a4.234,4.234,0,0,1-3.821,1.84,4.764,4.764,0,0,1-3.821-1.84,8.872,8.872,0,0,1-1.132-4.954h0A8.263,8.263,0,0,1,26.4,51.129a4.234,4.234,0,0,1,3.821-1.84,4.764,4.764,0,0,1,3.821,1.84,8.879,8.879,0,0,1,1.274,4.954A9.266,9.266,0,0,1,33.9,61.036Zm19.248-4.1a4.921,4.921,0,0,0,2.831-1.415,4.317,4.317,0,0,0,1.132-3.4,4.221,4.221,0,0,0-1.84-3.821,8.932,8.932,0,0,0-5.237-1.274h-4.67V65h2.689V57.781h1.557a2.542,2.542,0,0,1,1.557.425A3.854,3.854,0,0,1,52.3,59.621l2.831,5.237h2.972l-2.831-5.52A4.552,4.552,0,0,0,53.152,56.932Zm-3.114-1.415H48.057V49.289h1.981A5.307,5.307,0,0,1,53.294,50,2.521,2.521,0,0,1,54.426,52.4a2.831,2.831,0,0,1-1.132,2.406A5.307,5.307,0,0,1,50.038,55.516Zm25.334-6.935a8.679,8.679,0,0,0-5.378-1.557H65.182V65h2.689V58.913h2.123a8.109,8.109,0,0,0,5.378-1.557,5.484,5.484,0,0,0,1.981-4.529A5.113,5.113,0,0,0,75.372,48.581Zm-1.981,7.076a5.729,5.729,0,0,1-3.4.849H67.871v-7.36h2.123a6.037,6.037,0,0,1,3.4.849,3.126,3.126,0,0,1,1.132,2.831C74.523,54.243,74.24,55.233,73.391,55.658Z" transform="translate(-3.9 -46.6)" fill="#fff"/>
      </g>
    </g>
    <g id="Grupo_17" data-name="Grupo 17" transform="translate(4182.713 2732.181)">
      <path id="Caminho_32" data-name="Caminho 32" d="M92.325,39.525,91.9,39.1Z" transform="translate(-69.397 5.057)" fill="#fff"/>
      <path id="Caminho_33" data-name="Caminho 33" d="M76,13.1h6.086a107.9,107.9,0,0,0,3.68,13.728A88.347,88.347,0,0,1,82.086,13.1Z" transform="translate(-76 -5.74)" fill="#fff"/>
      <path id="Caminho_34" data-name="Caminho 34" d="M87.3,51.784h0A82.923,82.923,0,0,0,91.546,44,46.5,46.5,0,0,1,87.3,51.784Z" transform="translate(-71.307 7.092)" fill="#fff"/>
      <path id="Caminho_35" data-name="Caminho 35" d="M93.164,39.8c-.849,1.557-1.557,3.114-2.264,4.67.708-1.7,1.557-3.255,2.264-4.67Z" transform="translate(-69.812 5.348)" fill="#fff"/>
      <g id="Grupo_16" data-name="Grupo 16" transform="translate(0 0)">
        <path id="Caminho_36" data-name="Caminho 36" d="M119.308,20.779C121.148,13,121.855,7.9,121.855,7.9H112.8a153.7,153.7,0,0,1-2.831,15.144c-.142.425-.142.849-.283,1.132-1.274,4.812-2.831,9.907-4.67,15-.708,1.84-1.274,3.538-2.123,5.52h0l-.283-.283-.142-.142A101.475,101.475,0,0,1,96.239,32.1a.52.52,0,0,1-.142-.425,16.281,16.281,0,0,1-.849-2.406A89.271,89.271,0,0,1,90.436,8.183V8.042H76V15.26h6.086a107.9,107.9,0,0,0,3.68,13.728,83.6,83.6,0,0,0,11.888,22.22,2.4,2.4,0,0,0,.849.849l.425.425.425.425h0c-.849,1.557-1.557,3.114-2.264,4.67a3.771,3.771,0,0,1-.849,1.415c-1.274,2.548-2.689,5.237-4.246,7.784h8.067c1.84-2.689,3.538-5.661,5.1-8.492a105.923,105.923,0,0,0,4.812-9.907q2.76-6.369,4.67-12.313a16.282,16.282,0,0,1,.849-2.406,6.253,6.253,0,0,1,.849-2.264c.708-2.264,1.274-4.529,1.84-6.51.283-1.274.708-2.548.991-3.68C119.308,20.921,119.308,20.921,119.308,20.779Z" transform="translate(-76 -7.9)" fill="#fff"/>
      </g>
    </g>
    <circle id="Elipse_6" data-name="Elipse 6" cx="5.52" cy="5.52" r="5.52" transform="translate(4194.318 2795.161)" fill="#fff"/>
    <circle id="Elipse_7" data-name="Elipse 7" cx="5.52" cy="5.52" r="5.52" transform="translate(4244.136 2795.161)" fill="#fff"/>
    <g id="Grupo_19" data-name="Grupo 19" transform="translate(4076 2721)">
      <path id="Caminho_37" data-name="Caminho 37" d="M21.829,57.461c-9.341,0-14.719-4.812-14.719-15.851V18.257H.6V10.9H7.11V.425L16.31,0V10.9H27.632v7.36H16.31V41.468c0,5.944,2.548,8.35,7.076,8.35a15.144,15.144,0,0,0,5.237-.708l.566,7.36A28.926,28.926,0,0,1,21.829,57.461Z" transform="translate(-0.6)" fill="#fff"/>
      <path id="Caminho_38" data-name="Caminho 38" d="M46.165,7a21.788,21.788,0,0,1,6.51.708L51.4,15.35a15.95,15.95,0,0,0-4.529-.708A23.011,23.011,0,0,0,36.4,16.907V53.422H27.2V11.246C32.012,8.7,39.23,7,46.165,7Z" transform="translate(10.447 2.907)" fill="#fff"/>
      <path id="Caminho_39" data-name="Caminho 39" d="M65.533,54.554c-11.888,0-17.833-5.661-17.833-13.587,0-9.341,7.5-13.87,17.833-13.87a40.621,40.621,0,0,1,9.482.991V24.267c0-6.227-3.538-9.624-10.473-9.624a33.086,33.086,0,0,0-12.03,2.264l-1.84-7.218A40.781,40.781,0,0,1,65.391,7c12.455,0,18.54,6.51,18.54,17.691V50.449C80.252,52.572,74.024,54.554,65.533,54.554Zm9.482-8.633V34.174a31.608,31.608,0,0,0-8.492-1.132c-5.661,0-9.766,1.981-9.766,7.5,0,4.812,3.538,7.218,9.482,7.218C70.345,47.76,73.458,46.911,75.015,45.92Z" transform="translate(18.96 2.907)" fill="#fff"/>
    </g>
  </g>
</svg>
