<svg xmlns="http://www.w3.org/2000/svg" width="112.121" height="75.192" viewBox="0 0 112.121 75.192">
  <g id="Grupo_1" data-name="Grupo 1" transform="translate(-140.845 -45.844)">
    <path id="Caminho_2" data-name="Caminho 2" d="M186.741,636.27c-1.433.435-2.962.93-4.728,1.509-5.039,1.65-4.768,6.347-4.511,10.81l0,.025h0c.019.329.038.658.056,1,.017.328.031.659.041,1,.066,2.206.168,4.474.257,6.42l0,.052c.145,3.2.236,6.456.265,9.718.027,3.117,0,6.23-.1,9.3v.028c-.061,1.948-.131,4.222-.166,6.444v0c-.006.331-.015.663-.027,1-.013.354-.027.681-.042,1.009h0l0,.02c-.193,4.464-.4,9.162,4.672,10.814,1.745.57,3.267,1.06,4.748,1.507s2.9.846,4.453,1.23,3.234.759,5.238,1.156,4.32.816,7.108,1.286q3.6.606,7.172,1.094,3.589.486,7.164.835t7.152.538q3.588.19,7.152.206c3.556.013,7.092-.2,10.629-.53,3.493-.325,7.061-.773,10.649-1.224h.012l0,0c2.489-.312,4.99-.627,7.666-.919,1.7-.186,3.462-.458,5.248-.793s3.607-.739,5.425-1.186,3.642-.94,5.412-1.45,3.542-1.054,5.249-1.6c4.876-1.559,4.824-2.682,4.658-6.171v0h0l0-.019h0c-.02-.414-.041-.86-.056-1.35h-.006l0-.427v-.013l-.009-.472h0l-.007-.537v-.035c-.288-6.117-.467-13.128-.523-20.143-.054-6.857.01-13.709.207-19.725h0v-.581h0l0-.448h0v-.464h.007c.008-.488.023-.937.037-1.352v-.012c.06-1.793.1-2.977-.453-3.837-.565-.88-1.794-1.546-4.3-2.343-1.677-.534-3.44-1.072-5.272-1.6-1.811-.52-3.633-1.012-5.431-1.452-1.821-.446-3.645-.848-5.443-1.185s-3.554-.607-5.26-.794c-2.68-.292-5.185-.606-7.679-.919h-.013c-3.595-.451-7.169-.9-10.666-1.224-3.541-.329-7.08-.543-10.637-.53q-3.563.013-7.148.206t-7.144.538q-3.57.346-7.152.835-3.563.483-7.156,1.094c-2.781.47-5.085.887-7.09,1.286s-3.679.77-5.222,1.155c-1.559.389-2.977.787-4.433,1.229m-7,50.065a32.992,32.992,0,0,1,.027-3.836v0l.013-.267c.011-.237.021-.468.027-.633s.012-.315.015-.442c0-.149.008-.287.01-.41.033-1.984.1-3.949.152-5.643l0-.063V675h0v0l0-.014q.066-2.019.088-4.035.023-2.073,0-4.149c-.013-1.4-.04-2.812-.081-4.227q-.062-2.153-.167-4.333l0-.075,0-.107c-.08-1.672-.173-3.606-.234-5.581l0-.015v0h0c-.014-.456-.049-1.033-.085-1.618l0-.05,0-.027v0h0l0-.032h0v-.008a28.291,28.291,0,0,1-.04-4.407l.095-.972.691.688,2.1,2.1.132.132,0,.189c.012.662.056,1.373.1,2.077v.022l.005.087,0,.069c.031.527.063,1.055.083,1.68h0c.057,1.83.151,3.8.232,5.509l0,.092.006.115q.1,2.15.167,4.373.061,2.137.081,4.312.02,2.112,0,4.216-.023,2.065-.089,4.087l0,.145c-.027.843-.057,1.748-.083,2.634-.014.494-.027.989-.039,1.473s-.022.988-.03,1.462c0,.169-.006.327-.011.475,0,.163-.01.312-.015.452-.012.31-.023.556-.034.8v.059h0v0l0,.039v.013c-.012.264-.025.529-.034.774-.01.267-.019.527-.025.772l0,.187-.132.131-2.131,2.124-.715.713Zm98.531,8.034c-.54.157-1.033.3-1.475.424s-.938.262-1.529.423c-.918.251-1.781.481-2.573.682q-1.264.323-2.548.622t-2.593.572c-.88.183-1.739.35-2.57.5-3.312.59-7.179,1.1-11.063,1.532s-7.779.8-11.139,1.092c-1.646.145-3.314.266-5.017.349-1.674.083-3.362.128-5.069.122q-1.71-.006-3.395-.053h0q-1.707-.047-3.373-.13-1.714-.085-3.373-.205-1.638-.118-3.388-.279t-3.385-.342q-1.634-.18-3.376-.4t-3.386-.461q-1.645-.238-3.376-.515c-1.374-.22-2.581-.418-3.636-.6-1.087-.186-2.1-.367-3.059-.547s-1.828-.352-2.648-.523c-.836-.175-1.6-.345-2.324-.514s-1.447-.352-2.158-.538-1.406-.378-2.083-.572c-.248-.071-.566-.164-.947-.276s-.707-.21-.992-.3l-.509-.153.222-.482c.222-.483.371-.807.452-.983l.449-.969.169-.363.383.115.806.24.805.232c.7.2,1.375.387,2.032.559s1.35.346,2.074.517,1.491.341,2.277.506c.8.168,1.652.336,2.569.508s1.912.35,3.027.541c1.144.2,2.328.392,3.571.59q1.633.261,3.344.509,1.726.25,3.326.456t3.329.4q1.708.189,3.315.336t3.309.27q1.687.121,3.321.2,1.68.084,3.322.13,1.662.046,3.3.052c1.624.006,3.259-.039,4.9-.121,1.615-.081,3.261-.2,4.927-.348,3.365-.3,7.188-.647,10.973-1.069,3.8-.423,7.605-.922,10.949-1.519q1.266-.225,2.487-.48c.818-.17,1.654-.355,2.5-.552s1.695-.4,2.545-.621c.9-.229,1.723-.445,2.478-.652.368-.1.812-.225,1.322-.369s.954-.272,1.337-.383l.381-.111.167.359.451.972.454.984.224.487Zm7.078-47.886-.009.422h0v1.537h-.013c-.086,2.554-.144,5.429-.175,8.387-.034,3.19-.037,6.482-.011,9.579.026,3.188.084,6.607.171,9.919.079,3.012.182,5.939.309,8.525h.029v1.343h0l.007.231.035,1.16-.823-.82-2.233-2.226-.127-.127-.008-.181c-.117-2.5-.213-5.363-.287-8.322-.079-3.163-.132-6.433-.158-9.485-.025-3.027-.023-6.247.008-9.371.03-2.98.086-5.867.169-8.41l.006-.184.13-.129,2.193-2.185.812-.81Zm-97.708-7.8.842-.251c.336-.1.612-.18.81-.236.674-.194,1.357-.383,2.075-.572s1.418-.365,2.15-.538,1.482-.34,2.316-.515c.817-.171,1.69-.345,2.641-.523s1.967-.361,3.051-.547c1.053-.181,2.257-.379,3.627-.6q1.724-.275,3.368-.514,1.627-.235,3.379-.461t3.37-.4q1.64-.182,3.38-.342t3.383-.278q1.658-.119,3.371-.205,1.664-.083,3.37-.13,1.684-.047,3.4-.053c1.707-.006,3.4.038,5.07.121,1.7.084,3.374.2,5.022.35,3.365.3,7.252.656,11.158,1.092,3.891.434,7.764.941,11.084,1.532.819.146,1.678.312,2.568.5s1.748.374,2.607.573q1.334.31,2.6.632,1.317.334,2.543.668c.472.129.995.274,1.562.434.459.13.981.28,1.554.447l.516.15-.225.486q-.228.495-.456.983l-.454.972-.167.358-.379-.11c-.389-.112-.842-.241-1.366-.389q-.607-.17-1.393-.384-1.269-.346-2.531-.666c-.866-.22-1.705-.425-2.507-.611-.847-.2-1.684-.382-2.506-.552s-1.644-.328-2.5-.481c-3.352-.6-7.161-1.1-10.969-1.519-3.791-.421-7.621-.772-10.992-1.068-1.669-.147-3.317-.268-4.933-.349-1.645-.082-3.281-.127-4.906-.121q-1.634.005-3.3.052-1.64.046-3.32.13-1.631.081-3.317.2-1.707.122-3.3.269t-3.31.337q-1.715.19-3.323.4t-3.319.456q-1.708.248-3.337.509c-1.24.2-2.42.394-3.561.59-1.112.191-2.111.37-3.019.541s-1.762.34-2.562.509c-.783.165-1.533.332-2.269.506-.72.17-1.4.341-2.066.516s-1.324.359-2.023.56l-.666.192-.665.2-.381.114-.169-.362-.453-.97q-.226-.487-.454-.982l-.223-.483Zm-4.385,2.937-1.215-2.035c-.422-.708-.3-.791-.681-.131l-1.561,2.7c-.326.565-.431.448,0,.882l3.631,3.62c.665.663.537.81.918.047l.508-1.016c.23-.46.135-.482.471-.114,1.271,1.391,2.138,2.378,3.409,3.768.781.854.761.336.387-.492-1.392-3.08-2.626-5.561-4.018-8.641-.229-.508-.159-.6-.394-.126L183.9,641.7C183.557,642.4,183.675,642.328,183.253,641.62Zm98.53.093L283,639.677c.422-.708.3-.791.681-.131l1.561,2.7c.326.565.431.449,0,.882l-3.631,3.62c-.665.663-.537.811-.918.048l-.508-1.016c-.23-.46-.135-.482-.471-.114-1.271,1.391-2.138,2.377-3.41,3.768-.78.854-.761.337-.387-.491,1.392-3.08,2.626-5.561,4.018-8.641.229-.508.159-.6.394-.126l.809,1.618C281.479,642.488,281.361,642.421,281.783,641.712Zm-98.53,49.773-1.215,2.035c-.422.708-.3.791-.681.131l-1.561-2.7c-.326-.565-.431-.449,0-.882l3.631-3.62c.665-.663.537-.811.918-.048l.508,1.015c.23.46.135.483.471.114,1.271-1.391,2.138-2.378,3.409-3.769.781-.854.761-.336.387.492-1.392,3.08-2.626,5.561-4.018,8.641-.229.508-.159.6-.394.126L183.9,691.4C183.557,690.709,183.675,690.777,183.253,691.485Zm98.53.093L283,693.613c.422.708.3.791.681.131l1.561-2.7c.326-.565.431-.449,0-.882l-3.631-3.62c-.665-.663-.537-.81-.918-.048l-.508,1.016c-.23.46-.135.482-.471.114-1.271-1.391-2.138-2.377-3.41-3.768-.78-.854-.761-.337-.387.492,1.392,3.08,2.626,5.561,4.018,8.641.229.508.159.6.394.126l.809-1.619C281.479,690.8,281.361,690.87,281.783,691.578Zm-80.294-44.507c.006-.03.069-.364.065-.364a1.8,1.8,0,0,1,.5-1.113,2.009,2.009,0,0,1,.841-.494h0a2.879,2.879,0,0,1,1-.119,3.483,3.483,0,0,1,1.329.341,1.065,1.065,0,0,1,.353.262.57.57,0,0,1,.144.369l.061,7.347,0,.392,0,.392h0c-.033,7.474-.018,12.243.007,19.715,0,1.115-.063,6.89-.317,7.92a3.043,3.043,0,0,1-.969,1.113,3.154,3.154,0,0,1-1.625.54,5.279,5.279,0,0,1-1.446-.26c-.161-.041-5.521-.682-7.581-1.773-1.481-1.188-1.487-1.787-1.5-3.385,0-.418-.009-.911-.046-1.529-.243-3.986-.179-8.09-.2-15.93-.016-5.7.1-11.223.45-12.545l.236-.267.37-.2a1.993,1.993,0,0,1,.332-.134h0c.028-.01.056-.019.08-.028a1.987,1.987,0,0,1,.372-.105,3.173,3.173,0,0,1,1.231.031,2.044,2.044,0,0,1,1.151.651,1.357,1.357,0,0,1,.216.374l.019.108c.012,1.6.006,3.74,0,6.889-.015,8.1-.365,13.983-.126,18.247v.015l.023,2.643c.008.967-.048,1.273,1.01,1.892a6.639,6.639,0,0,0,2.721.768c.687.038,1.191-.018,1.186-.545v-.02c.225-3.473.221-10.188.171-17.075-.021-2.98-.057-2.778-.086-5.46-.031-2.851-.058-5.283-.063-6.9,0-.137-.007-.287-.014-.432a4.929,4.929,0,0,1,.006-.812C201.418,647.442,201.454,647.255,201.489,647.071ZM252.4,662.155c.038-.014.07-.029.031-.005A.029.029,0,0,1,252.4,662.155Zm-.223-13.6.024,1.936c.017,1.388.033,2.965.05,4.434.025,2.2.05,5.259.075,7.2l-.042,0c-.853.016-3.7.135-4.177.039-.739-.149-.645-.073-.621-.863.046-1.533-.032-4.488-.161-6.835a63.878,63.878,0,0,1-.117-6.482c.021-.241.243-.345.562-.375a7.129,7.129,0,0,1,1.839.189c.427.076.852.16,1.242.254a6.457,6.457,0,0,1,.953.294,1.309,1.309,0,0,1,.349.2c.016.014.025-.006.025.005Zm-9.266,34a2.077,2.077,0,0,0,.553,1.879,2.728,2.728,0,0,0,1.13.629,1.709,1.709,0,0,0,.972.039,2.481,2.481,0,0,0,.714-.328c.051-.032.106-.07.164-.114a1.832,1.832,0,0,0,.157-.132,1.81,1.81,0,0,0,.147-.152v0a1.711,1.711,0,0,0,.129-.172l.073-.214c.011-.157.009-.324.008-.491a4.471,4.471,0,0,1,.017-.537c.169-1.448.129-5.348.092-9.453-.033-3.539-.065-6.1.04-7.451.018-.227.039-.351.074-.383a1.06,1.06,0,0,1,.319-.02c.886,0,1.711.038,2.536.075.8.037,1.6.073,2.509.075v.057c-.04,2.073-.074,4.169-.09,6.936-.015,2.577-.016,7.158.006,8.552,0,.075-.011.215-.022.376-.056.773-.141,1.96.59,2.392a2.424,2.424,0,0,0,.849.311,2.347,2.347,0,0,0,1.229-.127h0a2.185,2.185,0,0,0,.9-.648,1.754,1.754,0,0,0,.357-.72,4.632,4.632,0,0,0,.039-1.314l0-.024c-.325-4.248-.188-10.98-.064-15.631.07-2.608.136-5.6.116-7.72-.009-.941.021-2,.053-3.1.084-2.923.175-6.52-.438-8.807-.259-.966-1.536-1.3-2.7-1.6l-.295-.079c-.641-.171-1.312-.343-2.007-.494s-1.457-.289-2.255-.387c-4.069-.5-5.3-.619-5.663,1.563a20.594,20.594,0,0,0-.062,3.4c.013.532.028,1.12.038,1.753.035,2.145.043,6.882.051,10.687.007,3.261.015,5.989.038,8.169l.006.583c.047,4.267.116,10.11-.307,12.61Zm-29.574-20.685.017,0a5.61,5.61,0,0,0,.948-.207,9.977,9.977,0,0,0,2.092-.844c1.48-1.039,1.557-4.184,1.551-6.53a54.779,54.779,0,0,0-.313-6.655,1.972,1.972,0,0,0-1.486-1.39,2.118,2.118,0,0,0-2.288,2.117c-.014.9-.07,1.453-.123,1.987-.05.505-.1.992-.109,1.666-.013.9.065,3.005-.034,4.624C213.475,658.53,213.351,660.562,213.338,661.873Zm-4.5,19.505-.031-17.647v-.392l0-.008.339-12.195h0v-.816c-.08-4.929.19-6.2,2.028-6.521,1.319-.229,6.616-1.373,8.907-.366a3.372,3.372,0,0,1,2.164,3.244c.111,1.376.117,4.182.073,5.972-.067,2.729-.074,5.957-.173,6.842a4.151,4.151,0,0,1-1.137,2.541,7.853,7.853,0,0,1-2.485,1.593,8.749,8.749,0,0,1-.824.294c-.2.065-.41.134-.594.2l.071.021c.159.048.3.091.417.134l.619.238c.324.125.637.246.8.306,4.08,1.531,3.626,10.445,3.253,14.959-.091,1.1-.171,2.068-.171,2.822,0,.127,0,.212.009.3.038.725.087,1.641-1.029,2.07l-.109.032a3.512,3.512,0,0,1-2.742-.149v0a1.548,1.548,0,0,1-.522-1.59,4.263,4.263,0,0,0,.016-.492v-.132c0-.674.084-1.584.181-2.63.341-3.694.762-11.539-1.694-12.868l-.082-.045a7.788,7.788,0,0,0-2.674-.986c0,.06,0,.132,0,.208l.006.2.031,16.368a.715.715,0,0,1-.13.4,1.337,1.337,0,0,1-.245.271,1.779,1.779,0,0,1-.328.222,2.656,2.656,0,0,1-.393.169,2.749,2.749,0,0,1-.58.123,5.848,5.848,0,0,1-.671.036,3.7,3.7,0,0,1-.546-.039,2.259,2.259,0,0,1-.5-.131c-1.192-.482-1.054-1.644-1.242-2.484Zm28.015-7.168a21.66,21.66,0,0,0-.884-4.22,6.614,6.614,0,0,0-1.113-1.589,5.349,5.349,0,0,0-1.187-.9c-1.485-.908-2.366-1.431-4.26-1.187,0,3.836.145,10.694.081,14.527-.031,1.831.712,1.679,2.163,1.679C236.267,682.47,237.208,677.488,236.856,674.21Zm-2.646-16.1a14.568,14.568,0,0,0,.983-5.4,8.578,8.578,0,0,0-.643-3.549c-.582-1.561-1.554-3.208-3.685-3.125a1,1,0,0,0-1.039,1c-.481,6.324.034,8.019-.3,13.064-.09,1.341-.133,1.77.732,1.944C232.275,662.449,233.57,659.53,234.21,658.112Zm4.895-6.752a22.378,22.378,0,0,1,.025,3.5,17.468,17.468,0,0,1-.513,2.913c-.818,2.261-2.622,5.365-5.247,6.249a7.794,7.794,0,0,1,4.505,2.251c2.644,2.407,3.047,5.608,3.047,9.091a18.536,18.536,0,0,1-.464,4.23,11.768,11.768,0,0,1-1.082,2.383,8.023,8.023,0,0,1-1.236,1.562c-2.37,2.309-4.643,2.409-8.164,2.409h-.8c-.33,0-.674-.018-1.02-.053-2.955-.294-3.236-.821-3.1-2.831.3-4.408.248-18.432.1-21.055a94.831,94.831,0,0,1,.245-13.027,20.1,20.1,0,0,1,.1-4.255c.353-1.559,1.217-1.98,3-2.216a10.91,10.91,0,0,1,3.557.031,8.549,8.549,0,0,1,6.218,5.072A9.059,9.059,0,0,1,239.1,651.36Zm22.232-5.781a6.181,6.181,0,0,1,1.594.255,2.838,2.838,0,0,1,1.544,1.371c2.615,6.234,2.97,16.13,4.471,24.251l-.21-22.477c-.006-.525.036-1.6.859-1.841a6.6,6.6,0,0,1,2.889.652,1.029,1.029,0,0,1,.331.585,1.568,1.568,0,0,1,.075.809l-.288,28.468c-.023,2.3.017,4.177-3.106,4.177a1.813,1.813,0,0,1-.56-.09,5.8,5.8,0,0,1-.739-.315q-.459,0-.815-1.012a15.308,15.308,0,0,1-.611-2.271c-.946-5.031-1.817-13.367-2.964-18.587-.681-3.1-.87-4.716-.651-.392l.251,4.952v17.752c0,1.751-3.9,2.457-4.017.742-.012-.173-.153-.33-.153-.54v-25.8l.177-9.052C259.414,646.126,259.843,645.536,261.336,645.579Zm-16.024,46.574,1.425-.089a1.085,1.085,0,0,0,.188.529.79.79,0,0,0,.661.293.732.732,0,0,0,.494-.15.451.451,0,0,0,.173-.348.445.445,0,0,0-.165-.338,1.912,1.912,0,0,0-.767-.281,3.258,3.258,0,0,1-1.4-.588,1.184,1.184,0,0,1-.423-.936,1.271,1.271,0,0,1,.217-.706,1.439,1.439,0,0,1,.651-.522,3.047,3.047,0,0,1,1.191-.189,2.436,2.436,0,0,1,1.417.345,1.49,1.49,0,0,1,.58,1.1l-1.411.082a.659.659,0,0,0-.733-.624.6.6,0,0,0-.394.111.339.339,0,0,0-.132.27.27.27,0,0,0,.108.207,1.232,1.232,0,0,0,.5.179,6.271,6.271,0,0,1,1.406.428,1.471,1.471,0,0,1,.618.537,1.363,1.363,0,0,1,.194.718,1.535,1.535,0,0,1-.259.858,1.606,1.606,0,0,1-.721.6,2.909,2.909,0,0,1-1.166.2,2.4,2.4,0,0,1-1.712-.476A1.87,1.87,0,0,1,245.312,692.153Zm-4.754-3.242h4.55v1.2h-1.527v3.648h-1.5v-3.648h-1.526Zm-4.706,0h4.011v1.035h-2.511v.77h2.33v.988h-2.33v.954h2.585v1.1h-4.085Zm-6.07,0h1.969l.76,2.948.757-2.948h1.963v4.845h-1.223v-3.694l-.949,3.694h-1.107l-.945-3.694v3.694h-1.226Zm-4.456,0h1.5v3.652h2.336v1.193h-3.834Zm-4.705,0h4.011v1.035h-2.511v.77h2.329v.988h-2.329v.954h2.584v1.1h-4.085Zm-5.259,0h1.5v1.7H218.5v-1.7H220v4.845h-1.5V691.8h-1.637v1.959h-1.5ZM181.726,636.9c1.724-.565,3.234-1.054,4.747-1.513,1.489-.452,2.924-.855,4.48-1.243s3.266-.769,5.265-1.166,4.3-.814,7.115-1.289q3.581-.6,7.185-1.1,3.587-.487,7.188-.839t7.184-.542q3.581-.19,7.2-.206c3.589-.013,7.155.2,10.72.533,3.609.335,7.142.778,10.7,1.224l.013,0c2.542.319,5.1.639,7.664.919,1.729.189,3.516.464,5.332.8s3.648.745,5.49,1.2,3.681.946,5.468,1.459c1.766.507,3.547,1.052,5.3,1.61,2.734.87,4.106,1.643,4.8,2.724.706,1.1.663,2.4.6,4.366v.012c-.015.444-.031.926-.038,1.434v.816h0l0,.567v.018l0,.032c-.2,6.006-.26,12.837-.206,19.668.055,6.977.234,13.964.521,20.08l0,.018v.039l.007.572h0l0,.461v.114c.014.591.041,1.158.065,1.674h0v0l0,.024h0c.191,4.009.242,5.3-5.3,7.074-1.705.545-3.473,1.088-5.274,1.608s-3.64,1.018-5.445,1.461c-1.832.45-3.666.856-5.475,1.2s-3.594.616-5.321.8c-2.565.28-5.114.6-7.652.919h-.011l0,0c-3.547.445-7.073.889-10.678,1.224-3.56.331-7.123.547-10.712.533q-3.615-.013-7.2-.206t-7.191-.542q-3.606-.35-7.2-.839-3.612-.489-7.2-1.1c-2.818-.475-5.137-.893-7.134-1.289s-3.705-.775-5.282-1.166-3.016-.795-4.5-1.242-3.009-.94-4.77-1.514c-5.729-1.868-5.518-6.914-5.31-11.714h0l0-.02c.015-.355.031-.708.043-1.022.012-.341.022-.67.027-.978.035-2.251.1-4.516.166-6.457v-.027c.1-3.066.125-6.169.1-9.269-.028-3.234-.119-6.478-.265-9.685l0-.052c-.087-1.933-.189-4.186-.256-6.435-.009-.3-.024-.63-.042-.976-.016-.321-.037-.672-.057-1.024l0-.025h0C176.3,643.814,176.02,638.768,181.726,636.9Z" transform="translate(-35.612 -583.159)"/>
  </g>
</svg>
