<svg xmlns="http://www.w3.org/2000/svg" width="163.121" height="58.152" viewBox="0 0 163.121 58.152">
  <g id="Grupo_1" data-name="Grupo 1" transform="translate(-270.571 -4447.14)">
    <path id="Caminho_1" data-name="Caminho 1" d="M433.683,4499.632l-1.156-16.489a3.723,3.723,0,0,0-1.863-2.968v-.244s.1-18.4.249-19.013c.125-.51-.188-9.461-.3-12.5a3.607,3.607,0,0,0,.048-.561.957.957,0,0,0-.085-.437c-.226-.444-.841-.226-1.114-.264-.337-.046-6.564,0-6.564,0l-9.448.264-12.33-.264H381.26l-17.577.087s-20.65-.193-22.936,0-20.125,0-20.125,0H307.168c-.3,0-10.381.177-10.381.177s-17.465.206-17.989.218-4.36-.218-4.36-.218h-2.823a1.912,1.912,0,0,0-.647.366,2.613,2.613,0,0,0-.354.848,25.4,25.4,0,0,1,0,2.687c-.095.242,0,5.253,0,5.253l.042,7.069s-.079,5.06-.084,5.157.193,5.107.193,5.52v5.616l-.193,4.866s.127,5.253.1,5.5.016,3.62.347,3.62h1.18c.269,0,10.8-.216,11.362,0s29.345,0,29.345,0,32.493.256,33.879.218,35.229-.218,35.229-.218l19.531.139-.136-1.943-4.516.061H355.4l-6.209-.039c-.05-.573-.2-2.3-.2-2.9v-14.48l.128-24.242s0-.823.256-1.02a.162.162,0,0,0,.059-.149l5.277.035.043-.222,4.012.007a19.438,19.438,0,0,0,.416,2.962,15.435,15.435,0,0,1,.121,2.83c-.005.058-.01.116-.015.174-.018.2-.031.36-.035.444a13.09,13.09,0,0,1-.285,2.13,4.083,4.083,0,0,0,.037,2.13c.072.171.21.855.431,1.957a26.99,26.99,0,0,0,.664,2.91,15.487,15.487,0,0,1,.685,2.633c.074.37.152,1.8.227,3.185.063,1.167.134,2.488.18,2.628.075.152.282.979.544,2.045.062.252.117.476.156.629a3.3,3.3,0,0,0,.252.687,4.228,4.228,0,0,1,.24.6,4.448,4.448,0,0,0,.529.9,3.19,3.19,0,0,1,.713,1.48,7.709,7.709,0,0,0,.294,1.734c.029.118.054.216.07.29a2.1,2.1,0,0,0,.2.465,1.458,1.458,0,0,1,.234.727c-.014.176-.02.542-.027.894s-.012.678-.024.868-.006.512,0,.833c.007.366.015.745,0,.965a5.547,5.547,0,0,0,.062.856,4.122,4.122,0,0,1,.052.765l-.027.212c-.043.329-.115.88-.111,1.022,0,.026,0,.062,0,.106a.931.931,0,0,0,.114.625.4.4,0,0,0,.376.076c.525-.093.547-.535.522-1.149,0-.084-.007-.167-.007-.242a7,7,0,0,0-.078-.817,9.8,9.8,0,0,1-.111-1.373l0-.2c.011-.99.037-3.311.017-3.687-.011-.186,0-.43.011-.688a5.834,5.834,0,0,0,0-.839c-.091-.7.5-1.038,1.016-1.334.451-.258.877-.5.938-.944.015-.109.085-.437.173-.854.147-.7.348-1.653.368-1.933a7.9,7.9,0,0,1,.321-1.246,7.229,7.229,0,0,0,.28-1.069c0-.04.121-4.078.122-4.861a10.6,10.6,0,0,1,.111-1.193,6.4,6.4,0,0,0,.092-1.526,18.79,18.79,0,0,1,.165-2.893c.047-.48.092-.933.086-1.02s-.074-.387-.155-.746a15.333,15.333,0,0,1-.468-2.772,4.134,4.134,0,0,0-.332-1.444,12.215,12.215,0,0,1-.508-1.791,42.877,42.877,0,0,0-.526-4.257,12.153,12.153,0,0,1-.391-1.876l6.118.011a16.291,16.291,0,0,0,.959,3.135,14.381,14.381,0,0,1,.628,2.729,8.273,8.273,0,0,1-.355,1.883,4.068,4.068,0,0,0-.119.475,9.738,9.738,0,0,1-.394,1.512c-.046.141-.084.26-.107.345a17.825,17.825,0,0,0-.039,1.8c0,.819,0,1.665-.034,2.169l-.013.182c-.078,1.082-.208,2.894-.208,3.246,0,.159.119,1.056.234,1.923.19,1.44.314,2.4.3,2.626s.032,1.945.066,3.318c.025,1.029.047,1.918.047,2.168,0,.595.043,2.715.049,2.946a2.138,2.138,0,0,0,.347,1.427,2.811,2.811,0,0,1,.482.714,4.335,4.335,0,0,1,.24,1.59,9.83,9.83,0,0,1-.147,1.168c-.056.322.035,1.311.471,1.315.349,0,.383-.464.422-.644a2.353,2.353,0,0,0-.175-1.306c-.039-.113-.076-.219-.1-.315a4.825,4.825,0,0,1,.192-1.97,8.62,8.62,0,0,0,.58-3.217c-.008-.421.045-.785.047-.984v-.151c.028-2.679.01-3.376-.011-3.489-.055-.3-.4-5.8-.426-6.7-.006-.188-.02-.51-.039-.911-.07-1.542-.187-4.124-.116-5.023l.013-.16a15.082,15.082,0,0,0,.038-3.316c-.036-.174-.152-.546-.314-1.062a73.275,73.275,0,0,1-1.525-7.415l8.4.017c.062.589.106,1.046.1,1.181-.01.473.225,4.718.225,4.718a3.522,3.522,0,0,1-.22,1.367,5.515,5.515,0,0,0-.307,1.81c.014.186-.046.894-.1,1.519-.032.374-.061.727-.064.843,0,.061-.012.173-.026.32a5.349,5.349,0,0,0,.1,2.269c.048.092.092.168.131.236.264.463.318.613.254,2.077-.072,1.634-.119,2.317-.147,2.725l0,.066c-.006.095,0,.5,0,1a37.055,37.055,0,0,1-.146,4.936,14.8,14.8,0,0,0-.016,3.159c.021.348.035.6.034.725-.005.458.179,2.193.22,2.445a2,2,0,0,0,.722,1.332.978.978,0,0,0,.485.133.746.746,0,0,0,.783-.758c.025-.476.039-2.438.051-4.169.009-1.379.018-2.682.032-3.063.02-.539.281-2.251.491-3.628.114-.748.222-1.456.224-1.551,0-.049.005-.116.011-.2a6.16,6.16,0,0,0-.153-2.052,2.878,2.878,0,0,1,.173-1.835,1.473,1.473,0,0,0,.114-.4c0-.061,0-.118.007-.175.018-.274.035-.533-.487-1.233-.551-.741-.409-2.2-.324-3.076.02-.2.036-.36.037-.465,0-.221.024-.538.044-.854a9.216,9.216,0,0,0,.037-1.014c-.013-.075-.039-.194-.069-.332-.058-.266-.13-.6-.167-.864a4.111,4.111,0,0,0-.536-1.046c-.07-.111-.117-.186-.147-.241,0,0-.36-3.485-.539-4.072a7.224,7.224,0,0,1,.032-1.833l3.281.007a2.8,2.8,0,0,1,1.467,2.3c.2,1.044-1.892,3.617-1.892,3.617a3.233,3.233,0,0,0-.041,3.413c.314.49,1.163,1.566,1.845,2.43.483.612.9,1.142,1.032,1.34.039.059.081.121.127.186a2.61,2.61,0,0,1,.662,1.885,3.555,3.555,0,0,1-1.09,2.061c-.657.438-2.152,1.57-1.85,2.624.442,1.544.541,1.6.955,1.815a4.822,4.822,0,0,1,1.066.746,19.748,19.748,0,0,1,3.178,4.135l.1.155a7.8,7.8,0,0,1,.99,2.152,6.716,6.716,0,0,0,.384,1.141c.122.313.237.608.293.8a4.58,4.58,0,0,1,.277,1.548,3.454,3.454,0,0,0,.14,1.51.954.954,0,0,0,.336.393.894.894,0,0,1,.418.7c.009.145,0,.314,0,.494-.016.546-.034,1.164.337,1.269.354.1.609.075.753-.078a.978.978,0,0,0,.16-.733c-.027-.407-.055-.708-.076-.935a3.113,3.113,0,0,1-.027-.67,1.379,1.379,0,0,0-.094-.807,7.935,7.935,0,0,1-.229-.881,5.637,5.637,0,0,0-.329-1.156,3.456,3.456,0,0,1-.251-1.356c-.016-.2-.031-.384-.05-.52a1.814,1.814,0,0,0-.384-1.121,6.748,6.748,0,0,1-.8-2,9.652,9.652,0,0,0-.345-.991c-.038-.054-.108-.2-.253-.508a10.9,10.9,0,0,0-1.641-2.792,4.075,4.075,0,0,1-.749-.771,1.851,1.851,0,0,0-.294-.326,8.343,8.343,0,0,1-1.2-1.022.434.434,0,0,0-.179-.126.212.212,0,0,1-.147-.145c-.022-.113.06-.2.3-.443.1-.1.254-.229.45-.389.769-.633,2.054-1.691,2.159-2.96.026-.317.058-.6.086-.847.119-1.062.173-1.547-.4-2.2-.157-.178-.471-.5-.869-.917-2.684-2.785-4.191-4.511-3.955-5.089a6.321,6.321,0,0,1,.512-1,4.837,4.837,0,0,0,1.442-2.922c.026-.5-.192-.546-.405-1.244-.2-.641,1.429-1.262,2.02-1.75l7.928.015a3.268,3.268,0,0,1,.763,1.893c0,.469.939,4.026.214,5.576a6.023,6.023,0,0,0-.473,1.241c-.017,1.692-.13,3.352-.205,4.449-.048.719-.087,1.286-.07,1.452.03.3.021,1.357.01,2.582-.014,1.634-.031,3.668.044,4.453.094.987.855,4.954.914,5.205.01.042.028.127.054.248a27.348,27.348,0,0,0,.969,3.605,4.638,4.638,0,0,0,1.483,1.8c.186.158.375.323.557.5a3.7,3.7,0,0,1,2.127-.864l2.174-.152c0-.034,0-.072,0-.1a8.608,8.608,0,0,1,.321-1.511,9.075,9.075,0,0,0,.358-1.741,6.322,6.322,0,0,1,.166-1.346c.048-.245.107-.537.172-.927a26.217,26.217,0,0,0,.231-4.625c-.033-.69-.047-2.294-.058-3.949h-.089l.013-.556c.018-.751.032-1.348.032-1.525,0-.5-.659-7.489-1.15-8.613-.041-.094-.031-4.291-.008-7.068l6.961.012c.018.3.031.572.039.789.041,1.093.133,5.26.133,5.26a2,2,0,0,1-.114,1.448,4.283,4.283,0,0,1-1.129,1.213c-.478.4-.973.82-1.072,1.231a31.942,31.942,0,0,0-.762,4.88c.012.08.024.183.038.3.095.774.291,2.384.834,2.854a10.7,10.7,0,0,0,1.924.886c1.513.609,3.228,1.3,3.644,1.966.518.832.3,2.513.088,4.139-.062.482-.122.937-.16,1.357-.114,1.247.1,1.421.2,1.506a.258.258,0,0,1,.117.257,1.1,1.1,0,0,0,.048.267,1.169,1.169,0,0,1-.226,1.281,5.579,5.579,0,0,1-1.105.64,3.463,3.463,0,0,0-.892.527c-.092.107-.324.327-.62.6l4.136-.289a8.823,8.823,0,0,0,1.577-1.215,4.469,4.469,0,0,0,.636-2.866,24.366,24.366,0,0,1-.1-2.818,8,8,0,0,0-1.386-3.838,22.109,22.109,0,0,0-3.052-2.391,9.4,9.4,0,0,1-.765-.557.962.962,0,0,1-.226-.347,1.364,1.364,0,0,0-.225-.374,2.22,2.22,0,0,0-.825-.524c-.1-.045-.194-.087-.276-.131-.281-.147-.387-.956-.507-2.6-.015-.209-.029-.4-.043-.558-.066-.742-.131-2.486.671-2.684l.065-.016a3.11,3.11,0,0,1,.754-.129.975.975,0,0,1,.814.438,3.372,3.372,0,0,1,.354.72c.212.526.431,1.069.834,1.072a.6.6,0,0,0,.137-.017c.482-.12.517-.817.551-1.491a3.282,3.282,0,0,1,.132-.958c.053-.135.1-.284.158-.44a3.844,3.844,0,0,1,1.019-1.788c.245-.2.306-.823.292-1.512,0,0-.072-2.2-.075-2.588,0-.331.037-1.919.085-3.486l3.58.007c.273-.032,5.536-.123,6.159-.123v16.413c0,1.435-.348,11.838-.348,11.838l.065,2.268c-.042,0-.084,0-.127,0l-23.987,1.677a3.726,3.726,0,0,0-3.453,3.973l1.156,16.489a3.728,3.728,0,0,0,3.974,3.454l23.987-1.677A3.726,3.726,0,0,0,433.683,4499.632Zm-128.731-48.488c.24-.12.722-.054.877-.135a.421.421,0,0,1,.5.207c.043.163.246.145.4.146a1.267,1.267,0,0,1,.737.453,6.979,6.979,0,0,0,.606.918c.174.183.127.448.236.59s.22-.06.327.185.291-.625.361-1.01a1.775,1.775,0,0,1,.579-.907c.133-.078.592.006.812-.113s.157-.4.618-.36.787.25.478.43-.571.076-.682.237-.026.385-.158.464-.413-.369-.459-.085.148.528-.1.992a4.615,4.615,0,0,0-.47.988,2.106,2.106,0,0,1-.351.727c-.162.242-.079.709-.254.727s-.217-.245-.215-.427.006-.729.006-.729a.928.928,0,0,0-.16.666c.018.488-.165.424-.141.648s.243.265.131.528a1.36,1.36,0,0,0-.141.626c0,.222-.068.668-.22.524s-.175-.042-.069.364a3.794,3.794,0,0,1,.169.69,2.253,2.253,0,0,0,.1.549c.046.142.177.3.287.165s.286-.114.288-.319a.94.94,0,0,0-.084-.489c-.065-.082.067-.243.113-.323a3.191,3.191,0,0,1,.1,1.074c-.045.224-.439.158-.551.319a2.442,2.442,0,0,0-.164.81,2,2,0,0,0,.128.67c.064.2.128.427.26.428s.266-.342.307,0,.3.51,0,.385-.282-.346-.414-.267a.574.574,0,0,0-.295.6c.089.287.286.369.219.55s-.4.4-.4.459.219.045.306.147-.206.221-.138.324.285.367.284.549.059.689.059.689.132-.053.135-.39.1-.923.053-1.006a2.67,2.67,0,0,1,.027-.588c0-.122-.065-.143-.085-.306s.045-.148.243-.184.328.068.175.168-.132.6-.132.6-.13.429,0,.49a.29.29,0,0,1,.166.323.617.617,0,0,1-.172.285s.08.175.144.342a2.014,2.014,0,0,1,.061.532s.15.446-.07.464-.5-.1-.68-.005-.113.3-.091.425a5.231,5.231,0,0,0,1.532.394,5.392,5.392,0,0,1,1.574.565,4.08,4.08,0,0,1,.837,1.036c-.093-.014-.242-.009-.176.084s.318.415.085.527-.323.113-.587-.269-.224-.875-1.578-1.121a6.778,6.778,0,0,0-4.038.342c-.969.552-1.008.865-1.272.566-.212-.239.113-.548.363-.736l.162-.116a7.257,7.257,0,0,1,1.722-.875.324.324,0,0,0,.217-.312c0-.248.34-.111.411-.111s-.1-.281-.139-.414-.014-.347-.174-.4a.3.3,0,0,1-.157-.413.934.934,0,0,0,.182-.46c0-.148.146-.4.023-.512s.039-.28.058-.428a3.293,3.293,0,0,0-.044-1.081c-.1-.306.128-.321.111-.4a3.047,3.047,0,0,0-.085-.478,2.649,2.649,0,0,1-.081-.825c.036-.116-.086-.315.093-.461s.466-.342.289-.394a.669.669,0,0,1-.422-.6c0-.3.255-.607.149-.772a1.511,1.511,0,0,1-.134-.876c.056-.279.093-.427.2-.509s.306-.277.021-.3-.462-.169-.39-.3.038-.3-.21-.463a1.034,1.034,0,0,1-.458-.713c-.121-.414-.21-.414-.17-.859s-.025-.957-.141-1.007a3.978,3.978,0,0,1-.712-1.05c-.024-.234,0-.456-.262-.641S304.713,4451.263,304.952,4451.144Zm7.528,1.653a3.485,3.485,0,0,1,2.586-1.142,3.54,3.54,0,0,1,2.723,1.623,5.6,5.6,0,0,1,.755,3.257,3.571,3.571,0,0,1-1.186,2.54c-.025.02-.049.043-.076.063a.33.33,0,0,1-.027.023,1.879,1.879,0,0,1-.9.452,5.1,5.1,0,0,1-1.132.227,3.76,3.76,0,0,1-2.546-1.285C310.35,4455.272,312.481,4452.8,312.481,4452.8Zm-8.779-1.164c.305.186.823.59.823.59a4.235,4.235,0,0,1,1.039,4.5c-.838,3-5.279,4.044-6.77,1.7a3.165,3.165,0,0,1-.815-3.418c.829-1.923.773-1.791.773-1.791a.942.942,0,0,1,.362-.262c.2-.066.183-.264.184-.381a3,3,0,0,1,2.154-1.229A4.56,4.56,0,0,1,303.7,4451.632Zm-1.689,14.111c-.072.075-.01.149-.067.552a.491.491,0,0,1-.428.4c-.488.082-.839-.11-1.043-.729a3.014,3.014,0,0,0-.28-.605,1.39,1.39,0,0,1,.8-.452c.2-.015.383.167.493.341s.352.037.459.079S302.085,4465.67,302.012,4465.744Zm-4.92-10.212a5.348,5.348,0,0,0,.575,2.119,5.784,5.784,0,0,0,.694.938c.178.251-.146.2-.146.2a3.672,3.672,0,0,1-1.352-1.94,2.563,2.563,0,0,1,.11-2.128c.092-.177.108.051.07.2A2.552,2.552,0,0,0,297.092,4455.532Zm-19.178,36.626a3.7,3.7,0,0,0-.824-.218,10.523,10.523,0,0,1-1.162-.01,2.559,2.559,0,0,1-.017-.333c.056-1.019-.158-6.223-.154-6.591,0-.3-.051-2.352.016-3.25a12.736,12.736,0,0,0,.953.854,20.978,20.978,0,0,0,1.95,1.194,18.388,18.388,0,0,1,2.037,1.442,6.479,6.479,0,0,0,.584.56c.01.4.026.736.05.95.1.9.56,3.99.563,4.405a4.091,4.091,0,0,0,.245,1Zm-2.2-11.445a3.627,3.627,0,0,1-1.572-1.405,1.783,1.783,0,0,1-.218-.945.711.711,0,0,1,.3-.313,1.056,1.056,0,0,1,.69,0c.176.031.634.547.76.726s.82.689.87,1.244S276.124,4480.782,275.711,4480.712Zm5.807-8.285c-.494-.138-.715-.77-.845-.9a2.621,2.621,0,0,1-.671-1.13,1.72,1.72,0,0,1,.145-1.484s.408-.583.768-.49a2.824,2.824,0,0,1,1.075.817,5.459,5.459,0,0,1,.313,1.773C282.353,4471.519,282.012,4472.566,281.518,4472.428Zm1.075,5.139c.34.8.647,1.546.723,1.8a4.17,4.17,0,0,0,.85,1.657,2.592,2.592,0,0,1,.343,1.681c-.046.224-.2,1.208-.849,1.317a1.555,1.555,0,0,1-1.139-.221c.006-.542.015-.939.031-1.047.063-.437.114-2.871.12-3.234C282.673,4479.3,282.628,4478.346,282.593,4477.567Zm4.341,14.6-3.862,0c-.229-1.053-.5-3.078-.522-3.418-.005-.09-.011-.393-.017-.818.032.04.06.08.1.121.491.542.71.953,1.343,1.043a1.917,1.917,0,0,0,1.85-.8c.274-.584.547-.986.684-1.3s.635-.715.635-.8-.241-.082-.043-.316c.181-.213.519-.809.715-.814a8.819,8.819,0,0,0,.241,1.963c.079.332.223.974.4,1.733a7.839,7.839,0,0,0-.57.991c-.015.163-.458,1.213-.549,1.482C287.271,4491.407,287.025,4491.859,286.934,4492.166Zm.009-23.571a4.551,4.551,0,0,0-.534-1.128,2.017,2.017,0,0,1-.168-1.563,1.4,1.4,0,0,1,.364-.609.833.833,0,0,1,1.035-.146c.4.229.622,1.116.665,1.477a5.209,5.209,0,0,1-.15,2.338C287.828,4469.56,286.985,4468.82,286.943,4468.594Zm.6,23.572a11.89,11.89,0,0,0,1.141-.976.893.893,0,0,1,.305-.194c.1.409.2.8.3,1.171Zm2.62,0c-.047-.275-.1-.552-.142-.824a5.709,5.709,0,0,0,1.1-.811,2.743,2.743,0,0,1,1.262-.307c.224.046.5-.215.608-.037s.37.656.261.732-.473.566.246.8a4.462,4.462,0,0,0,2.656-.161c.676-.312.995-.715,1.49-.846a3.778,3.778,0,0,1,.689-.067c.074.693.129,1.247.127,1.4,0,.029,0,.075,0,.131Zm7.823-4.749a3.712,3.712,0,0,1-.593-.13,8.336,8.336,0,0,1-1.469-2.394c-.076-.6-.8-1-.754-1.67a4.129,4.129,0,0,0,.011-1.665,8.717,8.717,0,0,1-.247-3.51c.1-.549.252-1.341.407-2.105a2.484,2.484,0,0,0,.381.515c.354.358.361.608.5,1.286s1.294,4.442,1.407,5.1.351,3.456.321,3.956A5.964,5.964,0,0,0,297.984,4487.419Zm-2.729-17.24a1.161,1.161,0,0,1-1.306.306c-.275-.2-.263-1.081-.165-2.3a3.369,3.369,0,0,1,.868-1.975s.619-.29.766-.22.458.078.577,1.174A6.74,6.74,0,0,1,295.255,4470.179Zm6.7,22-2.831,0c0-.412.043-.975.1-1.533a7,7,0,0,1,1.427.132,11.368,11.368,0,0,0,2.075.266,2.256,2.256,0,0,1,.939,1.134Zm.945-1.786c-.584-.138-.243-1-.62-1.534s.365-.717.365-.717a2.6,2.6,0,0,1,1.126-.217c.929-.071,3.369.765,2.507,1.906S303.489,4490.533,302.9,4490.393Zm12.553.135a1.781,1.781,0,0,1-1.458-1.693s.041-.361.622-.682a1.78,1.78,0,0,1,2.446,1.548C317.119,4490.286,316.839,4490.7,315.456,4490.528Zm.887,1.627c.189-.238.452-.469.706-.738,1.84.368,1.968-.388,2.056-.541s.178-.21.606-.125.852-.211,1.237-.014a2.558,2.558,0,0,1,1.1,1.408Zm7.514-6.982c-.117.271-.485,1.14-.8,1.877.1-1.177.206-2.675.163-3.039a5,5,0,0,0-.565-1.558,5.07,5.07,0,0,1-.335-2.281c-.017-.378-.021-.978-.016-1.65a8.073,8.073,0,0,1,.725,1.26c.186.584.64.939.689,1.342a4.2,4.2,0,0,1-.033,1.125A19.562,19.562,0,0,1,323.857,4485.173Zm2.464,6.966a4.523,4.523,0,0,0-.148-.917,4.445,4.445,0,0,1-.02-1.755c0-.4.266-.362.671-.411s-.007-.675.034-.945.4-.342.172-.678-.094-.36.13-.451-.006-.5.1-.739.34.149.567.416.675-.007.853-.189c.128-.132.262-.005.478.091a6.578,6.578,0,0,0,.187.669,21.614,21.614,0,0,1,.544,4.479c0,.109.009.26.014.424Zm1.913-22.266a2.333,2.333,0,0,1,.429-1.94,2.683,2.683,0,0,1,.672-.232c.314-.048.407.221.592.668a5.228,5.228,0,0,1,.019,1.709C329.483,4470.969,328.567,4470.828,328.234,4469.873Zm2.218,22.26c.046-1.227,0-3.779.032-3.926a9.633,9.633,0,0,0,.281-1.73,9.464,9.464,0,0,1,3.032,2.546c.137.174.262.317.381.448a11.987,11.987,0,0,0,.341,2.656Zm3.844-7.068a2.133,2.133,0,0,1-.21-1.038c.011-.118.064-.443.12-.79a4.51,4.51,0,0,1,.473,1A2.465,2.465,0,0,1,334.3,4485.064Zm1.243,7.06c.019-.676.04-1.414.063-2.1a.911.911,0,0,0,.148-.48.924.924,0,0,0-.116-.417c.007-.187.014-.366.021-.528a2.639,2.639,0,0,0,.572.439c.5.264.764-.144.8-.638s.243-.476.485-.951.448-.429.782-.5.42-.724.566-.907,2.128-1.686,2.378-1.9c.163-.14.825-.9,1.262-1.412-.017.473-.062.9-.081,1.135-.037.441.2,5.775.181,6.182-.009.16.008,1.039.027,2.063Zm7.251-11.793c-.163-.568.571-1.31.571-1.31a.593.593,0,0,1,.858.215,1.216,1.216,0,0,1-.339,1.3C343.375,4481.008,342.954,4480.9,342.79,4480.332Zm4.5-.737s-.16,11.217-.16,11.392a4.208,4.208,0,0,1-.033,1.139l-2.132-.016h-1.242a22.237,22.237,0,0,1,.04-3.63,33.309,33.309,0,0,0,.207-6.454c-.117-.885,0-.824.244-1.192a2.453,2.453,0,0,0,.446-1.645c-.15-.457-.327-.621-.846-.844a.836.836,0,0,0-1.021.2,1.06,1.06,0,0,0-.168.267c-.452.542-1.584,2.417-1.919,2.892a43.75,43.75,0,0,1-3.8,4.095,1.393,1.393,0,0,1-1.244.205c-.093-.27-.116-.365.022-.926a5.327,5.327,0,0,0,.277-1.957c-.112-.337-.644-.992-.624-1.541a1,1,0,0,1,.264-.826,15.124,15.124,0,0,0,.534-3.158,5.832,5.832,0,0,0-.026-.836c.049-.115.1-.231.156-.357a31.138,31.138,0,0,0,.933-3.6,2.412,2.412,0,0,0,.416-.845,3.511,3.511,0,0,0-.332-2.095c-.283-.363-1.678-.937-2.173-.048a3.073,3.073,0,0,0-.462,2.172c0,.036.006.061.009.093l-.1.432-1.227,5.052s-.275,1.579-.352,2.794a2.6,2.6,0,0,1-1.414,2.355c-.65.187-1-.574-1.044-.843a.989.989,0,0,0-.274-.508c-.035-.2-.074-.391-.114-.574a3.37,3.37,0,0,0,.227-1.347c.039-.63.042-2.461.058-2.925s-.023-.632.11-2.3-.328-1.21-.51-1.389-.047-.224.22-.407.3-1.563.248-2.1a1.225,1.225,0,0,0,.155-.33,4.926,4.926,0,0,0-.5-2.7c-.262-.485-.968-.293-1.522-.328,0,0-1.486.076-1.2,2.067-.032.078-.064.153-.1.22a7,7,0,0,0-.377,2.57c.036.47.3.406.434.647s-.128.653.3,1.1.023,2.159-.283,2.883.1.852.281,1.03.187.674.218,1.014c.013.138.176.592.3,1.139a4.668,4.668,0,0,0,.068.816c.016.057.04.126.069.206a1.648,1.648,0,0,1-.427,1.279c-.957.887-2.078-.832-2.216-1.1a21.317,21.317,0,0,0-.973-2.027c-.211-.238-1.386-3.571-1.386-3.571s-.482-1.255-.858-2.327a8.713,8.713,0,0,0-.3-2.681c-.313-1.022-1.905-.783-2.175-.752a1.95,1.95,0,0,0-1.29,1.868,8.685,8.685,0,0,0,.849,2.077c.049.141.1.285.155.429a1.927,1.927,0,0,1,.062.307c.09.868.989,3.957,1.061,4.537s-.059,2.585.331,3.26.97,1.09.935,1.824,0,2.061.014,2.523c0,.16.052,1.089.108,2.263a4.244,4.244,0,0,1-1.742,1.171c-.4-.019-1.345-.93-1.592-1-.182-.046-.991-.28-1.747-.521a2.918,2.918,0,0,0-.837-.68c-.624-.287-2.914-.115-2.989,1.04-.1,1.453,1.313,2.246,1.687,3.584l-10.485.017c.434-.532,1.693-1.031,2.02-1.425a1.824,1.824,0,0,0,.266-2.392,1.317,1.317,0,0,0-.7-.492,4.02,4.02,0,0,0-3.576-.047c-.837.037-1.577.067-1.667.056s-.67-.1-1.337-.2a12.469,12.469,0,0,0-.114-2.71c-.273-1.707-.182-2.278-.267-2.532a5.114,5.114,0,0,0-.533-.892c-.116-.168-.638-3.69-.71-3.867s-.862-1.349-1.085-1.76-.022-.568-.157-.915a22.374,22.374,0,0,1-.3-2.375,3.936,3.936,0,0,0-.351-.986c.084-.883.178-1.9.251-2.691.061-.139.121-.281.171-.432.319-.952-.054-2.718-.852-2.992a1.724,1.724,0,0,0-1.5.269,4.715,4.715,0,0,0-.6,1.1,10.625,10.625,0,0,0-.35,2.5,2.366,2.366,0,0,0,.04,1.17l-.2,1.323s-.4,2.394-.438,2.607a9.734,9.734,0,0,1-.662,2.286c-.272.313-.916,1.617-1.4.441a56.225,56.225,0,0,1-1.152-6.822s-.332-1.89-.4-2.3a4.671,4.671,0,0,0,.08-1.508c-.134-.561-.506-1.729-.836-1.879a2.612,2.612,0,0,0-1.939.112,2.458,2.458,0,0,0-.632.767,4.565,4.565,0,0,0,.3,2.161c.129,1.351.375,2.115.323,2.558a16.171,16.171,0,0,0,.242,2.817c.122.853.864,4.209.818,4.434a8.066,8.066,0,0,0,.278,1.913c.113.249-.028,1.193-.657.965s-.894-.772-1.159-1.538-1.582-4.881-1.83-5.216a7.654,7.654,0,0,1-.931-2.074,5.134,5.134,0,0,0-.176-.567c.006-.072.01-.135.01-.175a9.137,9.137,0,0,0-.86-2.332,1.43,1.43,0,0,0-2.054-.154,2.379,2.379,0,0,0-.576,1.661c.081.469.71,1.518.724,1.96s.659,1.64.7,2.1.494,2.439.494,2.439.135,1.948.166,2.4a4.623,4.623,0,0,1,.014,1.595,6.3,6.3,0,0,0-.163,1.787c0,.089.007.274.008.521-.142-.129-.291-.269-.454-.426a17.54,17.54,0,0,0-2.774-2.27s-.571-.385-1.186-.821a12.341,12.341,0,0,0-1.126-1.106c-.447-.474-.436-.614-.739-.664a1.1,1.1,0,0,0-1.107.1,1.976,1.976,0,0,0-.424,1.609c.2.917.56,2.8.671,3.15a9.045,9.045,0,0,1,.238,2.667,14.02,14.02,0,0,0,.5,3.27c.039.218.189,2.065.356,3.554-.87-.033-1.719-.07-1.719-.07s-.824-.078-1.049-1.5a2.217,2.217,0,0,0-.045-.218c.006-1.019.046-2.162.046-2.162s-.152-4.624-.128-5.447.128-7.577.128-7.577-.014-4.188.047-4.382,0-6.948,0-6.948l-.047-5.52.074-6.61-.074-1.888s-.152-.215.863-.314c.248-.025.476-.059.682-.1.484-.079,9.828-.081,21.681-.052-.089.14.1.448.114.673.015.247-.184.576-.113.675s.177.084.139.347-.163.213-.4.277.068.43.208.694.212.234.232.036a2.155,2.155,0,0,1,.147-.494,6.905,6.905,0,0,0,.012-1.219.971.971,0,0,1,.2-.641c.084-.076.275-.216.428-.345l.576,0a2.084,2.084,0,0,1-.275.6c-.126.147.087.183-.135,1.137s.425.416.425.416.845-.668,1.366-1.076a5.7,5.7,0,0,1,2.776-.964c.66.088.194.266.194.266a7.933,7.933,0,0,0-4,2.09c-3.313,3.2.264,9.18.264,9.18s.98,2.177,1.235,2.625.376.8.5,1.052c.035.071.105.222.185.392-.034-.031-.065-.058-.09-.077-.174-.133-1.042-1.025-1.284-1.291s-.423-.456-.423-.456l-.085.087c.275.547.912,1.661.929,1.8.021.168.156.4-.05.589a10.072,10.072,0,0,1-1.037.662.446.446,0,0,1,.03.156c-.021.169-.354.826-.2,1.316a6.389,6.389,0,0,1,.255,1.037c.019.149.1.546.179.565a1.4,1.4,0,0,1,.512-.239,3.054,3.054,0,0,0,.753-.068c.124-.075.272-.187.38-.016a1.016,1.016,0,0,1-.007.767.691.691,0,0,1-.609.356c-.348,0-.047.156.186.143a.905.905,0,0,0,.872-.719,1.579,1.579,0,0,0,.058-.533c0-.363.5-.029.5-.029a1.548,1.548,0,0,1,.14.38c.034.182.211.266.3.1s-.155-.5.007-.793a1.376,1.376,0,0,1,.773-.6c.215-.031.321.1.176.266a1.924,1.924,0,0,1-.575.391c-.125.047-.074.2.284.118a2.661,2.661,0,0,1,.769-.109c.2.019.177.249.464.07a1.618,1.618,0,0,1,.483-.251,2.4,2.4,0,0,0,.2.208,1.561,1.561,0,0,0,.41.054c.089,0,.017.146-.145.163s-.481-.087-.428.062.258.273.148.341c0,0-.539.322-1.059.653.011-.068.031-.147.047-.259a.565.565,0,0,0-.193-.513c-.106-.1-.356.013-.447.127s-.163.2-.361.442.3.316.443.383a.127.127,0,0,1,.059.113,2.954,2.954,0,0,0-.484.369.374.374,0,0,0,0,.47.429.429,0,0,1-.089.445c-.13.147-.114.247,0,.322s0,.321-.094.443-.178.246,0,.42-.034.2-.107.322.089.149.141.371-.353.467-.3.615.076.446.21.459.132.187.051.26a3.693,3.693,0,0,0-.542.737c-.191.345-.411.9.274.224a8.142,8.142,0,0,1,3.249-1.922c1.181-.287,1.325-.369,1.36-.417s.2-.229.288-.2.3.085.286-.045.324-.23.27-.278-.337-.236-.479-.334-.411.111-.48-.2.111-.4.2-.509a.85.85,0,0,1,.519-.292c.18,0,.838.172.91.075s-.087-.313-.282-.366-.14-.215-.087-.3.146-.3.038-.33a.226.226,0,0,1-.176-.25c.02-.132.359-.194.112-.46s-.462-.251-.282-.365.378-.426.308-.492-.14-.265-.247-.267-.269.129-.34.063,0-.331.236-.344,1.3-.136,1.394-.168,1.143-.073,1.266.094.642.072.822.041.518-.062.57.039.14.3,0,.395-.733.273-.573.374.5.285.5.417a.294.294,0,0,0,.146.265c.1.083.386.168.206.25s-.163.245-.3.245-.465-.022-.288.163.337.266.282.348,0,.182.158.265,0,.165-.091.164-.108.149-.092.412.3.333.459.433.481.285-.18.246a1.645,1.645,0,0,0-.84.074s-.036.115.6.27a10.011,10.011,0,0,0,1.407.36,13.268,13.268,0,0,1,3.526,1.021c.977.538,1.083.588,1.083.588s.107.04,0-.145a6.8,6.8,0,0,0-1.736-1.405c-.534-.219-.388-.53-.3-.579s.5-.127.341-.245-.284-.2-.229-.266a.985.985,0,0,0-.1-.661c-.106-.084-.473-.3-.36-.4s.488-.012.382-.128-.3-.135-.3-.267.11-.295,0-.379a.189.189,0,0,1,.074-.312c.125-.033.915.105-.145-.529s-1.344-.624-1.379-.789.2-.279.093-.345c-.062-.04-.183-.139-.291-.22a1.653,1.653,0,0,0-.11-.393.776.776,0,0,1-.106-.426c0-.163.026-.345.179-.242s.129.285.281.347a3.791,3.791,0,0,0,1.308.154c.089-.1.147-1.64.194-1.862s.463-.488.747-.562a2.927,2.927,0,0,0,.7-.277c.265-.14.221-.627.508-.7s.311-.361.4-.625a10.465,10.465,0,0,1,.959-1.836,18.571,18.571,0,0,0,1.872-3.449,7.7,7.7,0,0,0,.149-4.314,5.4,5.4,0,0,0-2.057-2.937,3.829,3.829,0,0,0-2.317-.841h0c-.955-.09-2.907-.134-3.514-.2-.723-.081-.586-.376-.452-.4a4.12,4.12,0,0,0,1.26-.063,14.351,14.351,0,0,1,3.291.228,10.551,10.551,0,0,1,2.071.942c.107,0,.04-.428.006-.691a4.07,4.07,0,0,0-.234-.737l1.769.007a.7.7,0,0,1-.014.1,1.6,1.6,0,0,1-.082.251c.028.131.051.234.062.289.068.33-.081.956-.011,1.186s.052.233-.075.412-.109.248-.039.347.3.35.3.465a.634.634,0,0,0,.068.33.609.609,0,0,0,.282.349c.107.034.091-.2.112-.459s.307-.312.415-.492.362-.492.094-.561-.443-.234-.282-.282a.6.6,0,0,0,.3-.179c.054-.065.125,0,.233.052a.3.3,0,0,0,.411-.1.454.454,0,0,0-.191-.514c-.142-.1-.192-.528-.066-.576s.233.1.294.233.021.545.129.431a2,2,0,0,0,.009-.974,1.1,1.1,0,0,1-.01-.307c12.962.056,23.9.113,25.422.124a.341.341,0,0,1,.058.15c.029.395.142,1.531.142,1.531l.132,13.956Zm-11.675-9.039.444-.5s.26-.243.721.126.313,1.329.288,1.572a.675.675,0,0,1-1.121.283C335.309,4471.595,335.62,4470.556,335.62,4470.556ZM321.789,4473c-.316.632-.908.43-1.466-.136a3.025,3.025,0,0,1-.535-1.822s.194-.677.441-.814.54-.007.8.317S322.1,4472.37,321.789,4473Zm-2.506-17.532c0-.2.182-.264.3.469a3.8,3.8,0,0,1-.32,1.727c-.7,1.027-.528.412-.528.412A4.215,4.215,0,0,0,319.283,4455.47Zm47.241-.072a17.18,17.18,0,0,0-.333,3.764l-.225,4.977s.037,2.106.041,2.3a1.617,1.617,0,0,1-.026.274,2.133,2.133,0,0,0-.031.468c.006.1.019.264.034.453a9.478,9.478,0,0,1,.062,1.255c-.008.054-.017.167-.029.311a4.829,4.829,0,0,1-.233,1.437,11.968,11.968,0,0,0-.064,1.8,11.356,11.356,0,0,1-.075,1.912,10.922,10.922,0,0,0-.2,2.009c.033.075,0,.223-.134.745-.023.086-.042.158-.05.2a.242.242,0,0,1-.232.2c-.137,0-.321-.115-.419-.654-.058-.318-.163-.841-.26-1.32-.1-.516-.194-.96-.21-1.08-.01-.075-.057-.578-.121-1.276-.12-1.308-.345-3.74-.395-3.925-.029-.106-.079-.44-.164-1.02a19.684,19.684,0,0,0-.391-2.208,29.254,29.254,0,0,1-1.057-2.837c-.079-.354-.22-1.13-.323-1.7-.056-.312-.1-.571-.126-.68l-.038-.182a14.457,14.457,0,0,1-.421-2.862,5.752,5.752,0,0,0-.389-1.724,3.191,3.191,0,0,1-.165-.583,3.405,3.405,0,0,1-.177-.481s-.845-4.336-.808-5.02c.009-.163.011-.437.008-.777l5.965.011c.017.154.026.269.027.329a10.589,10.589,0,0,0,.607,2.046A24.78,24.78,0,0,1,366.523,4455.4Zm39.556-2.778c-.053.333-.456,5.688-.751,6.545a5.519,5.519,0,0,0-.455,1.953c.021.172.007.931-.009,1.81-.013.687-.025,1.4-.022,1.867,0,.377,0,.669-.007.962-.006.33-.012.661-.007,1.115,0,.009.005.818.035,1.313l.038.989c.025.634.052,1.353.077,2.05,0,.03.006.229.014.544.126,4.352.149,6.418.077,6.7a1.587,1.587,0,0,0-.036.347,1.388,1.388,0,0,1-.654,1.239c-.623.486-1.091.2-1.76-.516a5.425,5.425,0,0,1-1.022-3.2,5.784,5.784,0,0,0-.078-.636c-.02-.088-.04-.3-.072-.638-.023-.24-.047-.506-.074-.727-.084-1.2-.214-3.017-.228-3.113-.115-1.056-.448-4.719-.43-4.94.04-.478,0-4.73,0-5.109,0-.016,0-.046-.009-.092a7.08,7.08,0,0,1,0-1.694,4.908,4.908,0,0,0-.578-2.27,2.746,2.746,0,0,1-.3-.878c0-.246-.093-4.836-.106-5.028-.048-.719.846-1.146,1.383-1.962l4.885.009C406.067,4450.888,406.117,4452.377,406.079,4452.62Zm12.549,2.186a4.3,4.3,0,0,0-.083.547c-.207.413-.5.841-.711.843a1.069,1.069,0,0,0-.3.1,2.98,2.98,0,0,1-.573.206,1.105,1.105,0,0,1-.261.03l-.106,0c-.079,0-.161,0-.474.261a3.372,3.372,0,0,1-1.164.538,1.7,1.7,0,0,0-.474.187c-.1.106-.192.207-.3.206a.175.175,0,0,1-.138-.067c-.071-.087-.122-.255.082-1.242a6.259,6.259,0,0,0,.113-1.092s-.057-2.434-.089-2.882c-.041-.585-.222-.89-.1-1.358a14.236,14.236,0,0,0,.071-1.811l3.818.007a3.813,3.813,0,0,0,.382,1.517,1.76,1.76,0,0,1,.393,1.466A15.336,15.336,0,0,1,418.628,4454.806Zm11.579,48.459-23.988,1.678a3.386,3.386,0,0,1-3.609-3.138l-1.156-16.489a3.386,3.386,0,0,1,3.137-3.611l23.987-1.677a3.387,3.387,0,0,1,3.611,3.138l1.155,16.49A3.385,3.385,0,0,1,430.207,4503.265Zm-5.748-6.413c-.576-.12-.609-.175-.639-.6l-.71-10.115-3.332.409c-.144.024-.711.036-.676.542.022.318.315.341.563.354.367.032.471.069.535.981l.564,8.043c.029.42.005.48-.549.679a.382.382,0,0,0-.348.432c.031.45.6.4.725.386l3.607-.253c.129-.009.7-.034.664-.483A.382.382,0,0,0,424.459,4496.852Zm-7.372-2.72-1.014.071-.485-6.921c-.049-.7-.1-.6-.491-.577l-.811.057c-.3.021-.392.217-.619.509l-1.035,1.646L413.2,4497c.029.42.005.48-.549.679a.381.381,0,0,0-.348.432c.032.45.6.395.725.386l3.607-.253c.13-.008.7-.034.665-.483a.382.382,0,0,0-.405-.379c-.576-.12-.609-.176-.638-.6l-.122-1.745,1.014-.07c.115-.008.376-.027.347-.447S417.2,4494.124,417.088,4494.131Zm11.6-12.6-23.987,1.677a1.873,1.873,0,0,0-1.736,2l1.156,16.489a1.872,1.872,0,0,0,2,1.736l23.987-1.677a1.872,1.872,0,0,0,1.735-2l-1.155-16.489A1.873,1.873,0,0,0,428.684,4481.536Zm1.357,19.354-23.988,1.677a1,1,0,0,1-1.067-.927l-1.155-16.49a1,1,0,0,1,.927-1.067l23.988-1.676a1,1,0,0,1,1.068.928l1.155,16.488A1,1,0,0,1,430.04,4500.889Zm-117.756-27.249c-.12-.015-.308.12-.107.134s.293.176.159.159-.269.173-.122.25.577-.106.826.465,2.08.922,2.268.911a1.314,1.314,0,0,1,.734.193.415.415,0,0,0,.469,0c.027-.05-.133-.175-.213-.225s.189-.1,0-.37a5.374,5.374,0,0,0-1.769-1.207,10.722,10.722,0,0,0-2.552-.614s-.094.109,0,.147S312.405,4473.653,312.284,4473.641Zm5.883-9.207a.564.564,0,0,0,.185-.541c-.043-.208-.042-.355-.109-.377a.921.921,0,0,0-.249,0s-.367.541-.233.75S318.007,4464.6,318.167,4464.434Zm-1.527,16.248c.031-.123-.16-.207-.34-.057s-.286.388-.344.279-.131-.23-.191-.189-.149.012-.283.065-.592-.21-.711-.17a.585.585,0,0,1-.473-.142c-.118-.111-.416.01-.521.077a1.49,1.49,0,0,1-.6.118.74.74,0,0,0-.462.16c-.12.11-.2.272-.355.19h0a.124.124,0,0,0-.015-.082c-.088-.151-.206-.206-.206-.3s-.1-.1-.1-.1.076,1.428-1.99,1.628l-.208.08a2.349,2.349,0,0,0,1.347-.22,2.176,2.176,0,0,1,.747.1,3.873,3.873,0,0,0,.857.365c.09,0,.992.353,1.2.354s.327-.052.268-.108-.739-.325-.916-.441-.516-.4-.7-.369a2.735,2.735,0,0,1-.541-.073c-.12,0-.335.029-.43-.128a3.018,3.018,0,0,0,.495-.482l4.113.038a1.678,1.678,0,0,1,.373-.249c.088-.013.209-.164.105-.164S316.609,4480.8,316.64,4480.682Zm-7.614-5.347a16.132,16.132,0,0,0-5.219,1.012c-.135-.027-.266-.054-.341-.063-.212-.026.318-.464.413-.511s.658-.583.633-.752.215-.293.136-.368.586-.239.665-.238-.132.023,0-.246.411-.363.02-.245-.362-.083-.522-.058a9.544,9.544,0,0,0-2.664,1.151c-.8.611-.944.895-1.052.893s-.15.308-.245.456-.381.713-.316.887.226.225.4.066a.949.949,0,0,1,.632-.3c.255,0,.441.029.374.127s-.659.42-.669.689a3.61,3.61,0,0,0-.64.77.822.822,0,0,0,.473.454c.451.123.774.066.87.217a7.381,7.381,0,0,0,1.739.6s.356.085.431.085a2.125,2.125,0,0,1,.488.169,5.231,5.231,0,0,0,.844.187,2.019,2.019,0,0,0,.445.051l.131.024a1.1,1.1,0,0,0-.1.7h-.023c-.238.01-.383-.237-.545-.4s-.475-.06-.593-.075-.222-.193-.309-.276-.52-.005-.683-.076-.418.3-.435.448-.165.151-.416.176a5.728,5.728,0,0,1-1.083-.187c-.074-.014-.119.067-.223.093s-.282-.03-.313.052.132.193.235.3.77.069.77.069l3.665.034a1.232,1.232,0,0,0,.351.469c-.43.155-2.01.729-2.127.763a4.675,4.675,0,0,0-.625.186c-.074.054-.209.162,0,.179a10.771,10.771,0,0,0,1.8-.45c.376-.127,1.057-.326,1.347-.412a3.543,3.543,0,0,0,1.052.366c.09,0,.021-.1-.028-.163-.066-.03-.268-.134-.777-.421-1.137-.642-.492-1.281-.492-1.281a2.889,2.889,0,0,1,2.385-1.1,3.952,3.952,0,0,1,2.387.418,3.3,3.3,0,0,1,.648.568s.5.074.609.067.461-.194.566-.193.683-.008.788-.131a.79.79,0,0,1,.506-.188,1.583,1.583,0,0,0,.612-.267c.059-.068.342-.024.683-.09a6.234,6.234,0,0,0,1.281-.413c.239-.134.883-.451.883-.451C317.168,4476.132,313.716,4475.171,309.026,4475.335Zm-2.559,4.156c-.075.026-1.314-.864-1.52-.989s-.871-.628-.959-.7-.161-.15-.117-.206a1.969,1.969,0,0,1,.259-.187l2.338,1.966S306.541,4479.463,306.467,4479.491Zm8.909-1.866s-2.376,1.61-2.673,1.758-.418.188-.268,0,2.742-2.117,2.742-2.117.335.034.349.116S315.376,4477.625,315.376,4477.625Zm-7.643,4.511.038.043C307.855,4482.216,307.733,4482.136,307.733,4482.136Zm10.465-16.2c-.27-.169-.351-.338-.481-.191s-.536.12-.376-.047.257-.227.379-.225.061-.084,0-.251.011-.354-.262-.107-.25.165-.157-.1.229-.416-.087-.375a12.907,12.907,0,0,0-1.375,1.97c-.232.582-.555,1.353-.578,1.457s.269.21.429.129a2.143,2.143,0,0,1,.793-.224c.248,0,.813.029.813.029s.23-.374.3-.5.747-1.053.747-1.053A.435.435,0,0,0,318.2,4465.938Zm94.168,28.524-2.433.172,2.193-3.589-.085-1.216h-.029l-2.707,4.352a1.219,1.219,0,0,0-.264.8c.039.55.357.528.5.518l2.882-.2Z" transform="translate(0)"/>
  </g>
</svg>
