<svg xmlns="http://www.w3.org/2000/svg" width="234.284" height="85.214" viewBox="0 0 234.284 85.214">
  <g id="VTEX_pink_RGB.751a9fb5" transform="translate(-193.248 -186.14)">
    <path id="Caminho_24" data-name="Caminho 24" d="M285.452,186.14H211.027a7.653,7.653,0,0,0-6.766,11.235l7.445,14.1h-13.5a4.963,4.963,0,0,0-4.39,7.275l23.946,45.322a4.963,4.963,0,0,0,8.772,0l6.5-12.242,8.159,15.446a7.657,7.657,0,0,0,13.532.016l37.3-70.2A7.454,7.454,0,0,0,285.452,186.14ZM252.02,216.133l-16.085,30.276a3.3,3.3,0,0,1-5.837,0l-15.93-30.148a3.3,3.3,0,0,1,2.909-4.85h32.1a3.214,3.214,0,0,1,2.838,4.722Z" fill="#fff"/>
    <path id="Caminho_25" data-name="Caminho 25" d="M951.806,322.584h-8.141v27.9a.961.961,0,0,1-.959.959h-6.278a.961.961,0,0,1-.959-.959v-27.9h-8.189a.921.921,0,0,1-.959-.911v-4.935a.921.921,0,0,1,.959-.911H951.8a.963.963,0,0,1,1.007.911v4.937A.963.963,0,0,1,951.806,322.584Z" transform="translate(-587.192 -103.878)" fill="#fff"/>
    <path id="Caminho_26" data-name="Caminho 26" d="M1099.9,349.478a62.874,62.874,0,0,1-9.675.623c-6.183,0-11.645-1.582-11.645-10.3v-15.92c0-8.722,5.512-10.256,11.693-10.256a62.086,62.086,0,0,1,9.628.623c.671.1.959.336.959.959v4.464a.961.961,0,0,1-.959.959H1089.8c-2.253,0-3.067.766-3.067,3.26v4.362h12.79a.961.961,0,0,1,.959.959v4.553a.961.961,0,0,1-.959.959h-12.79v5.08c0,2.491.814,3.26,3.067,3.26H1099.9a.961.961,0,0,1,.959.959v4.458C1100.86,349.094,1100.571,349.382,1099.9,349.478Z" transform="translate(-709.152 -102.112)" fill="#fff"/>
    <path id="Caminho_27" data-name="Caminho 27" d="M1244.38,351.42h-7.62a1.272,1.272,0,0,1-1.246-.718l-6.607-10.489-5.986,10.258c-.336.575-.671.959-1.194.959h-7.092a.633.633,0,0,1-.718-.623.886.886,0,0,1,.1-.336l10.382-17.313-10.489-16.439a.681.681,0,0,1-.1-.289.69.69,0,0,1,.718-.623h7.715c.527,0,.911.48,1.194.911l6.131,9.681,5.934-9.681a1.554,1.554,0,0,1,1.194-.911h7.092a.69.69,0,0,1,.718.623.68.68,0,0,1-.1.289l-10.437,16.541,10.885,17.211a1.072,1.072,0,0,1,.143.48C1245,351.229,1244.764,351.42,1244.38,351.42Z" transform="translate(-817.472 -103.863)" fill="#fff"/>
    <path id="Caminho_28" data-name="Caminho 28" d="M770.793,316.286a.74.74,0,0,0-.724.6l-6.957,25.748c-.1.527-.239.718-.671.718s-.575-.2-.671-.718l-6.965-25.754a.74.74,0,0,0-.724-.6h-6.848a.74.74,0,0,0-.72.907s8.5,29.529,8.591,29.82a7.212,7.212,0,0,0,7.389,5.2,7.437,7.437,0,0,0,7.385-5.19c.135-.4,8.443-29.832,8.443-29.832a.74.74,0,0,0-.72-.905Z" transform="translate(-443.151 -104.242)" fill="#fff"/>
    <path id="Caminho_29" data-name="Caminho 29" d="M285.452,186.14H211.027a7.653,7.653,0,0,0-6.766,11.235l7.445,14.1h-13.5a4.963,4.963,0,0,0-4.39,7.275l23.946,45.322a4.963,4.963,0,0,0,8.772,0l6.5-12.242,8.159,15.446a7.657,7.657,0,0,0,13.532.016l37.3-70.2A7.454,7.454,0,0,0,285.452,186.14ZM252.02,216.133l-16.085,30.276a3.3,3.3,0,0,1-5.837,0l-15.93-30.148a3.3,3.3,0,0,1,2.909-4.85h32.1a3.214,3.214,0,0,1,2.838,4.722Z" fill="#fff"/>
  </g>
</svg>
