<svg width="26" height="28" viewBox="0 0 26 28" fill="none" xmlns="http://www.w3.org/2000/svg">
<path d="M26 7.77778H21.4338C20.7025 6.56444 19.695 5.52222 18.4762 4.72889L21.125 2.19333L18.8338 0L15.3075 3.37556C14.56 3.20444 13.7963 3.11111 13 3.11111C12.2037 3.11111 11.44 3.20444 10.7088 3.37556L7.16625 0L4.875 2.19333L7.5075 4.72889C6.305 5.52222 5.2975 6.56444 4.56625 7.77778H0V10.8889H3.39625C3.315 11.4022 3.25 11.9156 3.25 12.4444V14H0V17.1111H3.25V18.6667C3.25 19.1956 3.315 19.7089 3.39625 20.2222H0V23.3333H4.56625C6.25625 26.1178 9.3925 28 13 28C16.6075 28 19.7438 26.1178 21.4338 23.3333H26V20.2222H22.6037C22.685 19.7089 22.75 19.1956 22.75 18.6667V17.1111H26V14H22.75V12.4444C22.75 11.9156 22.685 11.4022 22.6037 10.8889H26V7.77778ZM19.5 14V18.6667C19.5 19.0089 19.4513 19.3978 19.3863 19.7556L19.2237 20.7667L18.6225 21.7778C17.4525 23.7067 15.3075 24.8889 13 24.8889C10.6925 24.8889 8.5475 23.6911 7.3775 21.7778L6.77625 20.7822L6.61375 19.7711C6.54875 19.4133 6.5 19.0244 6.5 18.6667V12.4444C6.5 12.0867 6.54875 11.6978 6.61375 11.3556L6.77625 10.3444L7.3775 9.33333C7.865 8.52444 8.5475 7.82444 9.34375 7.29556L10.27 6.68889L11.4725 6.40889C11.9763 6.28444 12.4962 6.22222 13 6.22222C13.52 6.22222 14.0237 6.28444 14.5437 6.40889L15.6488 6.65778L16.64 7.31111C17.4525 7.84 18.1187 8.52444 18.6062 9.34889L19.2237 10.36L19.3863 11.3711C19.4513 11.7133 19.5 12.1022 19.5 12.4444V14ZM9.75 17.1111H16.25V20.2222H9.75V17.1111ZM9.75 10.8889H16.25V14H9.75V10.8889Z" fill="white"/>
</svg>
