<svg width="70" height="113" viewBox="0 0 70 113" fill="none" xmlns="http://www.w3.org/2000/svg">
<g clip-path="url(#clip0)">
<path d="M33.203 39.143V30.0034H19.4481V10.3388H10.2696V39.143H33.203Z" fill="white"/>
<path d="M59.0025 39.143V30.0035H45.2476V27.8387H51.3566V21.6475H45.2476V19.3962H59.0025V10.2566H36.0561V39.143H59.0025Z" fill="white"/>
<path d="M49.7157 80.8664L42.6802 73.857H36.186V102.661H45.3602V89.4605L49.6897 93.79V102.661H58.8812V83.0355L49.7027 73.8959L49.7157 80.8664Z" fill="white"/>
<path d="M59.0025 42.217V42.1347H36.0561V71.0038H59.089V42.217H59.0025ZM45.2476 61.8816V51.2743H49.9235V61.8816H45.2476Z" fill="white"/>
<path d="M33.203 73.7747H10.2566V102.657H33.2895V73.857H33.19L33.203 73.7747ZM19.4481 93.5172V82.91H24.124V93.5172H19.4481Z" fill="white"/>
<path d="M26.713 42.217L21.7384 47.1872L16.7595 42.217H10.2696V71.0211H19.4481V62.4531V57.8205L21.7384 60.1368L24.0244 57.8205V62.4531V71.0211H33.203V42.217H26.713Z" fill="white"/>
<path d="M69.272 113H0V0H69.272V113ZM2.38989 110.623H66.8995V2.3769H2.38989V110.623Z" fill="white"/>
</g>
<defs>
<clipPath id="clip0">
<rect width="69.272" height="113" fill="white"/>
</clipPath>
</defs>
</svg>
