<svg width="34" height="34" viewBox="0 0 34 34" fill="none" xmlns="http://www.w3.org/2000/svg">
<path d="M33 17C33 25.8365 25.8365 33 17 33C8.16346 33 1 25.8365 1 17C1 8.16346 8.16346 1 17 1C25.8365 1 33 8.16346 33 17Z" stroke="white" stroke-width="2"/>
<path d="M7.07518 16.8526C7.07518 16.8526 15.5752 13.3642 18.5231 12.1358C19.6532 11.6445 23.4855 10.0722 23.4855 10.0722C23.4855 10.0722 25.2543 9.3844 25.1069 11.0549C25.0577 11.7428 24.6647 14.1503 24.2717 16.7543C23.682 20.4393 23.0433 24.4682 23.0433 24.4682C23.0433 24.4682 22.9451 25.5983 22.1098 25.7948C21.2746 25.9913 19.8988 25.107 19.6532 24.9104C19.4566 24.763 15.9682 22.552 14.6908 21.4711C14.3468 21.1763 13.9538 20.5867 14.7398 19.8988C16.5087 18.2775 18.6213 16.263 19.8988 14.9856C20.4884 14.3959 21.078 13.0202 18.6213 14.6907C15.133 17.0983 11.6937 19.3584 11.6937 19.3584C11.6937 19.3584 10.9075 19.8497 9.43355 19.4075C7.95952 18.9653 6.23987 18.3757 6.23987 18.3757C6.23987 18.3757 5.06075 17.6387 7.07518 16.8526V16.8526Z" fill="white"/>
</svg>
