<svg width="27" height="27" viewBox="0 0 27 27" fill="none" xmlns="http://www.w3.org/2000/svg">
<path fill-rule="evenodd" clip-rule="evenodd" d="M23.0662 3.92369C20.5281 1.39482 17.1526 0.00142139 13.5564 0C6.14645 0 0.115687 6.00147 0.112721 13.3783C0.111733 15.7363 0.730804 18.0381 1.90719 20.0669L0 27L7.12668 25.1395C9.09021 26.2054 11.301 26.7671 13.551 26.768H13.5565C20.9657 26.768 26.997 20.7658 27 13.3889C27.0014 9.81404 25.6044 6.45257 23.0662 3.92369V3.92369ZM13.5565 24.5083H13.5519C11.547 24.5076 9.58041 23.9715 7.86488 22.9583L7.45683 22.7173L3.22781 23.8214L4.35664 19.7179L4.09092 19.2972C2.97242 17.5266 2.38165 15.4802 2.38253 13.3791C2.38498 7.24782 7.39755 2.25965 13.561 2.25965C16.5454 2.26078 19.3509 3.41899 21.4606 5.5209C23.5702 7.62281 24.7314 10.4167 24.7302 13.3881C24.7277 19.5198 19.7152 24.5083 13.5565 24.5083V24.5083ZM19.6856 16.1799C19.3496 16.0126 17.6982 15.2038 17.3902 15.0923C17.0823 14.9807 16.8584 14.925 16.6345 15.2596C16.4106 15.5943 15.7668 16.3473 15.5708 16.5704C15.3749 16.7935 15.179 16.8214 14.843 16.6541C14.5071 16.4867 13.4248 16.1338 12.1417 14.9948C11.1432 14.1085 10.469 13.0136 10.2731 12.679C10.0771 12.3443 10.2522 12.1633 10.4204 11.9967C10.5715 11.8469 10.7563 11.6063 10.9242 11.411C11.0922 11.2158 11.1482 11.0764 11.2601 10.8533C11.3721 10.6302 11.3161 10.4349 11.2321 10.2676C11.1482 10.1003 10.4764 8.45483 10.1964 7.7855C9.92381 7.13363 9.64686 7.22183 9.44067 7.21162C9.24496 7.20193 9.02079 7.19985 8.79689 7.19985C8.57295 7.19985 8.20905 7.28353 7.90112 7.61818C7.59323 7.95286 6.72551 8.76163 6.72551 10.4071C6.72551 12.0525 7.92913 13.6421 8.09709 13.8652C8.26502 14.0883 10.4657 17.465 13.8353 18.9131C14.6368 19.2575 15.2625 19.4631 15.7503 19.6173C16.555 19.8717 17.2873 19.8358 17.8661 19.7497C18.5114 19.6537 19.8534 18.941 20.1334 18.1601C20.4133 17.3792 20.4133 16.7099 20.3293 16.5704C20.2454 16.431 20.0214 16.3473 19.6856 16.1799" fill="white"/>
</svg>
